solid OpenSCAD_Model
  facet normal -2.04154e-08 -2.12453e-09 1
    outer loop
      vertex -4.9305 -17.7702 -1.95431e-07
      vertex -2.46525 -14.7915 -1.38774e-07
      vertex -4.10422 -14.7915 -1.72234e-07
    endloop
  endfacet
  facet normal -2.04154e-08 -2.12453e-09 1
    outer loop
      vertex -2.46525 -14.7915 -1.38774e-07
      vertex -4.9305 -17.7702 -1.95431e-07
      vertex 7.7695 -76.2 -6.02911e-08
    endloop
  endfacet
  facet normal -2.04154e-08 -2.12453e-09 1
    outer loop
      vertex 7.7695 -76.2 -6.02911e-08
      vertex -4.9305 -17.7702 -1.95431e-07
      vertex -4.9305 -76.2 -3.19567e-07
    endloop
  endfacet
  facet normal 0 -1 0
    outer loop
      vertex 7.7695 -76.2 -6.02911e-08
      vertex -4.9305 -76.2 -3.19567e-07
      vertex 7.7695 -76.2 -12.7
    endloop
  endfacet
  facet normal -1 2.40889e-09 3.75462e-08
    outer loop
      vertex -4.9305 -76.2 -3.19567e-07
      vertex -4.9305 -21.1798 -3.52998
      vertex -4.9305 -76.2 -12.7
    endloop
  endfacet
  facet normal -1 8.16085e-09 1.272e-07
    outer loop
      vertex -4.9305 -21.1798 -3.52998
      vertex -4.9305 -76.2 -3.19567e-07
      vertex -4.9305 -17.7702 -1.95431e-07
    endloop
  endfacet
  facet normal 3.38793e-09 1.8427e-09 1
    outer loop
      vertex 7.7695 -14.7915 -1.73449e-07
      vertex -2.46525 -14.7915 -1.38774e-07
      vertex 7.7695 -76.2 -6.02911e-08
    endloop
  endfacet
  facet normal 3.38981e-09 1.8411e-09 1
    outer loop
      vertex -0.00295955 -0.00693271 -1.7436e-07
      vertex 0.00236781 4.54214e-07 -1.7439e-07
      vertex -0.00103628 4.54343e-07 -1.74379e-07
    endloop
  endfacet
  facet normal 3.38767e-09 1.84274e-09 1
    outer loop
      vertex 0.00236781 4.54214e-07 -1.7439e-07
      vertex -0.00295955 -0.00693271 -1.7436e-07
      vertex 0.00331206 -0.000439856 -1.74393e-07
    endloop
  endfacet
  facet normal -0 0 -1
    outer loop
      vertex 6.62872 -6.84466 -12.7
      vertex -4.9305 -30.0374 -12.7
      vertex 2.09027 -4.72835 -12.7
    endloop
  endfacet
  facet normal 0 -0 -1
    outer loop
      vertex -4.9305 -30.0374 -12.7
      vertex 6.62872 -6.84466 -12.7
      vertex -4.9305 -76.2 -12.7
    endloop
  endfacet
  facet normal 1 -1.70577e-08 6.36604e-08
    outer loop
      vertex 7.7695 -11.7822 -5.31127
      vertex 7.7695 -7.0302 -11.5283
      vertex 7.7695 -4.62517 -3.39354
    endloop
  endfacet
  facet normal 1 -1.06062e-08 6.85916e-08
    outer loop
      vertex 7.7695 -12.0012 -5.34513
      vertex 7.7695 -7.0302 -11.5283
      vertex 7.7695 -11.7822 -5.31127
    endloop
  endfacet
  facet normal 1 -7.03478e-10 7.6553e-08
    outer loop
      vertex 7.7695 -12.2231 -5.34717
      vertex 7.7695 -7.0302 -11.5283
      vertex 7.7695 -12.0012 -5.34513
    endloop
  endfacet
  facet normal 1 1.17638e-08 8.7027e-08
    outer loop
      vertex 7.7695 -12.4437 -5.31735
      vertex 7.7695 -7.0302 -11.5283
      vertex 7.7695 -12.2231 -5.34717
    endloop
  endfacet
  facet normal 1 2.90101e-08 1.02059e-07
    outer loop
      vertex 7.7695 -12.6586 -5.25625
      vertex 7.7695 -7.0302 -11.5283
      vertex 7.7695 -12.4437 -5.31735
    endloop
  endfacet
  facet normal 1 5.62283e-08 1.26484e-07
    outer loop
      vertex 7.7695 -12.8637 -5.16507
      vertex 7.7695 -7.0302 -11.5283
      vertex 7.7695 -12.6586 -5.25625
    endloop
  endfacet
  facet normal 1 1.09541e-07 1.75359e-07
    outer loop
      vertex 7.7695 -13.055 -5.04557
      vertex 7.7695 -7.0302 -11.5283
      vertex 7.7695 -12.8637 -5.16507
    endloop
  endfacet
  facet normal 1 2.77617e-07 3.31563e-07
    outer loop
      vertex 7.7695 -13.2288 -4.90008
      vertex 7.7695 -7.0302 -11.5283
      vertex 7.7695 -13.055 -5.04557
    endloop
  endfacet
  facet normal 1 1.4204e-08 8.52238e-08
    outer loop
      vertex 7.7695 -13.2288 -4.90008
      vertex 7.7695 -76.2 -6.02911e-08
      vertex 7.7695 -7.0302 -11.5283
    endloop
  endfacet
  facet normal 1 8.14682e-09 7.38313e-09
    outer loop
      vertex 7.7695 -13.3816 -4.73144
      vertex 7.7695 -76.2 -6.02911e-08
      vertex 7.7695 -13.2288 -4.90008
    endloop
  endfacet
  facet normal 1 8.003e-09 5.47361e-09
    outer loop
      vertex 7.7695 -13.5106 -4.54293
      vertex 7.7695 -76.2 -6.02911e-08
      vertex 7.7695 -13.3816 -4.73144
    endloop
  endfacet
  facet normal 1 7.89279e-09 3.95281e-09
    outer loop
      vertex 7.7695 -13.6131 -4.33821
      vertex 7.7695 -76.2 -6.02911e-08
      vertex 7.7695 -13.5106 -4.54293
    endloop
  endfacet
  facet normal 1 7.80362e-09 2.66633e-09
    outer loop
      vertex 7.7695 -13.6872 -4.12127
      vertex 7.7695 -76.2 -6.02911e-08
      vertex 7.7695 -13.6131 -4.33821
    endloop
  endfacet
  facet normal 1 7.765e-09 2.08063e-09
    outer loop
      vertex 7.7695 -76.2 -6.02911e-08
      vertex 7.7695 -13.6872 -4.12127
      vertex 7.7695 -14.7915 -1.73449e-07
    endloop
  endfacet
  facet normal 1 0 0
    outer loop
      vertex 7.7695 -76.2 -6.02911e-08
      vertex 7.7695 -7.37662 -12.7
      vertex 7.7695 -7.0302 -11.5283
    endloop
  endfacet
  facet normal 1 -6.92842e-09 -3.75462e-08
    outer loop
      vertex 7.7695 -7.37662 -12.7
      vertex 7.7695 -76.2 -6.02911e-08
      vertex 7.7695 -76.2 -12.7
    endloop
  endfacet
  facet normal 0 0 -1
    outer loop
      vertex -4.9305 -76.2 -12.7
      vertex 7.7695 -7.37662 -12.7
      vertex 7.7695 -76.2 -12.7
    endloop
  endfacet
  facet normal -0 0 -1
    outer loop
      vertex 7.7695 -7.37662 -12.7
      vertex -4.9305 -76.2 -12.7
      vertex 6.62872 -6.84466 -12.7
    endloop
  endfacet
  facet normal 0 -1 -0
    outer loop
      vertex -4.9305 -76.2 -3.19567e-07
      vertex -4.9305 -76.2 -12.7
      vertex 7.7695 -76.2 -12.7
    endloop
  endfacet
  facet normal -1 2.0659e-08 -7.19546e-08
    outer loop
      vertex -4.9305 -30.0374 -12.7
      vertex -4.9305 -76.2 -12.7
      vertex -4.9305 -21.1798 -3.52998
    endloop
  endfacet
  facet normal 3.79725e-08 1 -3.33556e-09
    outer loop
      vertex -2.50257e-05 4.54292e-07 -0.00377424
      vertex -0.00103628 4.54343e-07 -1.74379e-07
      vertex 0.00236781 4.54214e-07 -1.7439e-07
    endloop
  endfacet
  facet normal -0.933013 0.258819 -0.25
    outer loop
      vertex -2.50257e-05 4.54292e-07 -0.00377424
      vertex -0.00295955 -0.00693271 -1.7436e-07
      vertex -0.00103628 4.54343e-07 -1.74379e-07
    endloop
  endfacet
  facet normal -0.933013 0.258819 -0.25
    outer loop
      vertex 2.09027 -4.72835 -12.7
      vertex -0.00295955 -0.00693271 -1.7436e-07
      vertex -2.50257e-05 4.54292e-07 -0.00377424
    endloop
  endfacet
  facet normal -0.933013 0.258819 -0.25
    outer loop
      vertex 2.09027 -4.72835 -12.7
      vertex -2.78093 -12.5139 -2.58062
      vertex -0.00295955 -0.00693271 -1.7436e-07
    endloop
  endfacet
  facet normal -0.933013 0.258819 -0.25
    outer loop
      vertex 2.09027 -4.72835 -12.7
      vertex -2.83762 -12.7368 -2.5998
      vertex -2.78093 -12.5139 -2.58062
    endloop
  endfacet
  facet normal -0.933013 0.258819 -0.25
    outer loop
      vertex 2.09027 -4.72835 -12.7
      vertex -2.90457 -12.9634 -2.58451
      vertex -2.83762 -12.7368 -2.5998
    endloop
  endfacet
  facet normal -0.933013 0.25882 -0.25
    outer loop
      vertex 2.09027 -4.72835 -12.7
      vertex -2.98048 -13.1892 -2.53505
      vertex -2.90457 -12.9634 -2.58451
    endloop
  endfacet
  facet normal -0.933013 0.258819 -0.25
    outer loop
      vertex -4.9305 -21.1798 -3.52998
      vertex -2.98048 -13.1892 -2.53505
      vertex 2.09027 -4.72835 -12.7
    endloop
  endfacet
  facet normal -0.933013 0.258819 -0.249999
    outer loop
      vertex -2.98048 -13.1892 -2.53505
      vertex -4.9305 -21.1798 -3.52998
      vertex -3.06386 -13.4099 -2.45237
    endloop
  endfacet
  facet normal -0.933013 0.258819 -0.25
    outer loop
      vertex -3.06386 -13.4099 -2.45237
      vertex -4.9305 -21.1798 -3.52998
      vertex -3.1531 -13.6212 -2.33809
    endloop
  endfacet
  facet normal -0.933013 0.258819 -0.25
    outer loop
      vertex -3.1531 -13.6212 -2.33809
      vertex -4.9305 -21.1798 -3.52998
      vertex -3.24645 -13.819 -2.19443
    endloop
  endfacet
  facet normal -0.933013 0.258819 -0.25
    outer loop
      vertex -3.7106 -14.4834 -1.15
      vertex -4.9305 -17.7702 -1.95431e-07
      vertex -4.10422 -14.7915 -1.72234e-07
    endloop
  endfacet
  facet normal -0.933013 0.258819 -0.250001
    outer loop
      vertex -3.62426 -14.4033 -1.38929
      vertex -4.9305 -17.7702 -1.95431e-07
      vertex -3.7106 -14.4834 -1.15
    endloop
  endfacet
  facet normal -0.933013 0.258819 -0.250001
    outer loop
      vertex -3.53287 -14.2944 -1.61766
      vertex -4.9305 -17.7702 -1.95431e-07
      vertex -3.62426 -14.4033 -1.38929
    endloop
  endfacet
  facet normal -0.933013 0.258819 -0.25
    outer loop
      vertex -3.4382 -14.1589 -1.83068
      vertex -4.9305 -17.7702 -1.95431e-07
      vertex -3.53287 -14.2944 -1.61766
    endloop
  endfacet
  facet normal -0.933013 0.258819 -0.25
    outer loop
      vertex -4.9305 -21.1798 -3.52998
      vertex -3.4382 -14.1589 -1.83068
      vertex -3.34211 -13.9994 -2.02419
    endloop
  endfacet
  facet normal -0.933013 0.258819 -0.25
    outer loop
      vertex -3.24645 -13.819 -2.19443
      vertex -4.9305 -21.1798 -3.52998
      vertex -3.34211 -13.9994 -2.02419
    endloop
  endfacet
  facet normal -0.933013 0.258819 -0.25
    outer loop
      vertex -3.4382 -14.1589 -1.83068
      vertex -4.9305 -21.1798 -3.52998
      vertex -4.9305 -17.7702 -1.95431e-07
    endloop
  endfacet
  facet normal -0.933013 0.258819 -0.25
    outer loop
      vertex -4.9305 -21.1798 -3.52998
      vertex 2.09027 -4.72835 -12.7
      vertex -4.9305 -30.0374 -12.7
    endloop
  endfacet
  facet normal 0.408218 0.875426 -0.258819
    outer loop
      vertex 0.00331206 -0.000439856 -1.74393e-07
      vertex -2.50257e-05 4.54292e-07 -0.00377424
      vertex 0.00236781 4.54214e-07 -1.7439e-07
    endloop
  endfacet
  facet normal 0.408218 0.875426 -0.258819
    outer loop
      vertex 7.7695 -4.62517 -3.39354
      vertex -2.50257e-05 4.54292e-07 -0.00377424
      vertex 0.00331206 -0.000439856 -1.74393e-07
    endloop
  endfacet
  facet normal 0.408218 0.875426 -0.258819
    outer loop
      vertex 2.09027 -4.72835 -12.7
      vertex 7.7695 -4.62517 -3.39354
      vertex 7.7695 -7.0302 -11.5283
    endloop
  endfacet
  facet normal 0.408218 0.875426 -0.258819
    outer loop
      vertex 6.62872 -6.84466 -12.7
      vertex 7.7695 -7.0302 -11.5283
      vertex 7.7695 -7.37662 -12.7
    endloop
  endfacet
  facet normal 0.408218 0.875426 -0.258819
    outer loop
      vertex 2.09027 -4.72835 -12.7
      vertex 7.7695 -7.0302 -11.5283
      vertex 6.62872 -6.84466 -12.7
    endloop
  endfacet
  facet normal 0.408218 0.875426 -0.258819
    outer loop
      vertex 7.7695 -4.62517 -3.39354
      vertex 2.09027 -4.72835 -12.7
      vertex -2.50257e-05 4.54292e-07 -0.00377424
    endloop
  endfacet
  facet normal 0.224143 0.266461 0.937421
    outer loop
      vertex -2.98048 -13.1892 -2.53505
      vertex 7.7695 -12.6586 -5.25625
      vertex 7.7695 -12.4437 -5.31735
    endloop
  endfacet
  facet normal 0.224143 0.26646 0.937421
    outer loop
      vertex 7.7695 -12.6586 -5.25625
      vertex -2.98048 -13.1892 -2.53505
      vertex -3.06386 -13.4099 -2.45237
    endloop
  endfacet
  facet normal 0.258819 -0.25 0.933013
    outer loop
      vertex -0.00295955 -0.00693271 -1.7436e-07
      vertex 7.7695 -4.62517 -3.39354
      vertex 0.00331206 -0.000439856 -1.74393e-07
    endloop
  endfacet
  facet normal 0.258819 -0.25 0.933013
    outer loop
      vertex -2.78093 -12.5139 -2.58062
      vertex 7.7695 -4.62517 -3.39354
      vertex -0.00295955 -0.00693271 -1.7436e-07
    endloop
  endfacet
  facet normal 0.258819 -0.25 0.933013
    outer loop
      vertex 7.7695 -4.62517 -3.39354
      vertex -2.78093 -12.5139 -2.58062
      vertex 7.7695 -11.7822 -5.31127
    endloop
  endfacet
  facet normal 8.76861e-10 0.965926 0.258819
    outer loop
      vertex 7.7695 -13.6872 -4.12127
      vertex -2.46525 -14.7915 -1.38774e-07
      vertex 7.7695 -14.7915 -1.73449e-07
    endloop
  endfacet
  facet normal -5.2839e-09 0.965926 0.258819
    outer loop
      vertex -2.46525 -14.7915 -1.38774e-07
      vertex -3.7106 -14.4834 -1.15
      vertex -4.10422 -14.7915 -1.72234e-07
    endloop
  endfacet
  facet normal 6.69037e-08 0.965926 0.258819
    outer loop
      vertex -2.46525 -14.7915 -1.38774e-07
      vertex 7.7695 -13.6872 -4.12127
      vertex -3.7106 -14.4834 -1.15
    endloop
  endfacet
  facet normal 0.257401 -0.147664 0.954956
    outer loop
      vertex -2.78093 -12.5139 -2.58062
      vertex 7.7695 -12.0012 -5.34513
      vertex 7.7695 -11.7822 -5.31127
    endloop
  endfacet
  facet normal 0.257401 -0.147665 0.954955
    outer loop
      vertex 7.7695 -12.0012 -5.34513
      vertex -2.78093 -12.5139 -2.58062
      vertex -2.83762 -12.7368 -2.5998
    endloop
  endfacet
  facet normal 0.15213 0.634504 0.7578
    outer loop
      vertex -3.24645 -13.819 -2.19443
      vertex 7.7695 -13.2288 -4.90008
      vertex 7.7695 -13.055 -5.04557
    endloop
  endfacet
  facet normal 0.15213 0.634503 0.757801
    outer loop
      vertex 7.7695 -13.2288 -4.90008
      vertex -3.24645 -13.819 -2.19443
      vertex -3.34211 -13.9994 -2.02419
    endloop
  endfacet
  facet normal 0.0538111 0.892841 0.447146
    outer loop
      vertex 7.7695 -13.6131 -4.33821
      vertex -3.53287 -14.2944 -1.61766
      vertex -3.62426 -14.4033 -1.38929
    endloop
  endfacet
  facet normal 0.0538111 0.892841 0.447146
    outer loop
      vertex -3.53287 -14.2944 -1.61766
      vertex 7.7695 -13.6131 -4.33821
      vertex 7.7695 -13.5106 -4.54293
    endloop
  endfacet
  facet normal 0.088521 0.822169 0.562319
    outer loop
      vertex 7.7695 -13.5106 -4.54293
      vertex -3.4382 -14.1589 -1.83068
      vertex -3.53287 -14.2944 -1.61766
    endloop
  endfacet
  facet normal 0.0885209 0.822169 0.562318
    outer loop
      vertex -3.4382 -14.1589 -1.83068
      vertex 7.7695 -13.5106 -4.54293
      vertex 7.7695 -13.3816 -4.73144
    endloop
  endfacet
  facet normal 0.203952 0.397679 0.894569
    outer loop
      vertex -3.06386 -13.4099 -2.45237
      vertex 7.7695 -12.8637 -5.16507
      vertex 7.7695 -12.6586 -5.25625
    endloop
  endfacet
  facet normal 0.203953 0.397678 0.89457
    outer loop
      vertex 7.7695 -12.8637 -5.16507
      vertex -3.06386 -13.4099 -2.45237
      vertex -3.1531 -13.6212 -2.33809
    endloop
  endfacet
  facet normal 0.251131 -0.00889456 0.967912
    outer loop
      vertex -2.83762 -12.7368 -2.5998
      vertex 7.7695 -12.2231 -5.34717
      vertex 7.7695 -12.0012 -5.34513
    endloop
  endfacet
  facet normal 0.251131 -0.00889394 0.967912
    outer loop
      vertex 7.7695 -12.2231 -5.34717
      vertex -2.83762 -12.7368 -2.5998
      vertex -2.90457 -12.9634 -2.58451
    endloop
  endfacet
  facet normal 0.239973 0.130042 0.96203
    outer loop
      vertex -2.90457 -12.9634 -2.58451
      vertex 7.7695 -12.4437 -5.31735
      vertex 7.7695 -12.2231 -5.34717
    endloop
  endfacet
  facet normal 0.239973 0.130042 0.96203
    outer loop
      vertex 7.7695 -12.4437 -5.31735
      vertex -2.90457 -12.9634 -2.58451
      vertex -2.98048 -13.1892 -2.53505
    endloop
  endfacet
  facet normal 0.0180541 0.946134 0.323272
    outer loop
      vertex 7.7695 -13.6872 -4.12127
      vertex -3.62426 -14.4033 -1.38929
      vertex -3.7106 -14.4834 -1.15
    endloop
  endfacet
  facet normal 0.0180546 0.946133 0.323273
    outer loop
      vertex -3.62426 -14.4033 -1.38929
      vertex 7.7695 -13.6872 -4.12127
      vertex 7.7695 -13.6131 -4.33821
    endloop
  endfacet
  facet normal 0.121508 0.735493 0.666547
    outer loop
      vertex 7.7695 -13.3816 -4.73144
      vertex -3.34211 -13.9994 -2.02419
      vertex -3.4382 -14.1589 -1.83068
    endloop
  endfacet
  facet normal 0.121508 0.735493 0.666547
    outer loop
      vertex -3.34211 -13.9994 -2.02419
      vertex 7.7695 -13.3816 -4.73144
      vertex 7.7695 -13.2288 -4.90008
    endloop
  endfacet
  facet normal 0.179791 0.521163 0.834305
    outer loop
      vertex -3.1531 -13.6212 -2.33809
      vertex 7.7695 -13.055 -5.04557
      vertex 7.7695 -12.8637 -5.16507
    endloop
  endfacet
  facet normal 0.179791 0.521165 0.834303
    outer loop
      vertex 7.7695 -13.055 -5.04557
      vertex -3.1531 -13.6212 -2.33809
      vertex -3.24645 -13.819 -2.19443
    endloop
  endfacet
  facet normal -1.3819e-08 -2.30351e-16 1
    outer loop
      vertex -25.4 -14.5079 -7.41088e-16
      vertex -12.7 -76.2 1.75502e-07
      vertex -12.7 -14.5079 1.75502e-07
    endloop
  endfacet
  facet normal -1.3819e-08 -5.10816e-17 1
    outer loop
      vertex -12.7 -76.2 1.75502e-07
      vertex -25.4 -14.5079 -7.41088e-16
      vertex -25.4 -76.2 -3.89242e-15
    endloop
  endfacet
  facet normal -1.38189e-08 -5.10816e-17 1
    outer loop
      vertex -25.4 -0.00576533 -2.94502e-19
      vertex -25.3976 -4.74186e-19 3.27359e-11
      vertex -25.4 0 0
    endloop
  endfacet
  facet normal -1.38304e-08 4.75361e-12 1
    outer loop
      vertex -25.3976 -4.74186e-19 3.27359e-11
      vertex -25.4 -0.00576533 -2.94502e-19
      vertex -25.3966 -0.000489658 4.72469e-11
    endloop
  endfacet
  facet normal -1 0 0
    outer loop
      vertex -25.4 -76.2 -12.7
      vertex -25.4 -14.2836 -5.70577
      vertex -25.4 -14.2836 -12.7
    endloop
  endfacet
  facet normal -1 0 0
    outer loop
      vertex -25.4 -14.2836 -5.70577
      vertex -25.4 -14.3558 -0.862466
      vertex -25.4 -14.3009 -1.08504
    endloop
  endfacet
  facet normal -1 0 0
    outer loop
      vertex -25.4 -76.2 -3.89242e-15
      vertex -25.4 -14.2836 -5.70577
      vertex -25.4 -76.2 -12.7
    endloop
  endfacet
  facet normal -1 0 -0
    outer loop
      vertex -25.4 -14.5079 -7.41088e-16
      vertex -25.4 -14.2836 -5.70577
      vertex -25.4 -76.2 -3.89242e-15
    endloop
  endfacet
  facet normal -1 0 0
    outer loop
      vertex -25.4 -14.2836 -5.70577
      vertex -25.4 -14.5079 -7.41088e-16
      vertex -25.4 -14.3558 -0.862466
    endloop
  endfacet
  facet normal -1 0 0
    outer loop
      vertex -25.4 -13.842 -1.87285
      vertex -25.4 -13.967 -1.67827
      vertex -25.4 -13.8264 -1.81864
    endloop
  endfacet
  facet normal -1 0 0
    outer loop
      vertex -25.4 -13.9843 -2.52837
      vertex -25.4 -13.967 -1.67827
      vertex -25.4 -13.842 -1.87285
    endloop
  endfacet
  facet normal -1 0 0
    outer loop
      vertex -25.4 -14.2166 -1.29792
      vertex -25.4 -13.9843 -2.52837
      vertex -25.4 -14.1017 -3.25406
    endloop
  endfacet
  facet normal -1 0 0
    outer loop
      vertex -25.4 -13.9843 -2.52837
      vertex -25.4 -14.1046 -1.49695
      vertex -25.4 -13.967 -1.67827
    endloop
  endfacet
  facet normal -1 0 0
    outer loop
      vertex -25.4 -14.3009 -1.08504
      vertex -25.4 -14.1017 -3.25406
      vertex -25.4 -14.1918 -4.0358
    endloop
  endfacet
  facet normal -1 0 0
    outer loop
      vertex -25.4 -13.9843 -2.52837
      vertex -25.4 -14.2166 -1.29792
      vertex -25.4 -14.1046 -1.49695
    endloop
  endfacet
  facet normal -1 0 0
    outer loop
      vertex -25.4 -14.3009 -1.08504
      vertex -25.4 -14.1918 -4.0358
      vertex -25.4 -14.2528 -4.85837
    endloop
  endfacet
  facet normal -1 0 0
    outer loop
      vertex -25.4 -14.3009 -1.08504
      vertex -25.4 -14.2528 -4.85837
      vertex -25.4 -14.2836 -5.70577
    endloop
  endfacet
  facet normal -1 0 0
    outer loop
      vertex -25.4 -14.1017 -3.25406
      vertex -25.4 -14.3009 -1.08504
      vertex -25.4 -14.2166 -1.29792
    endloop
  endfacet
  facet normal -1 0 0
    outer loop
      vertex -25.4 -0.00576533 -2.94502e-19
      vertex -25.4 2.38589e-19 -0.0037363
      vertex -25.4 -8.10462e-11 -0.0037363
    endloop
  endfacet
  facet normal -1 0 0
    outer loop
      vertex -25.4 2.38589e-19 -0.0037363
      vertex -25.4 -0.00576533 -2.94502e-19
      vertex -25.4 0 0
    endloop
  endfacet
  facet normal -1 0 -0
    outer loop
      vertex -25.4 -0.00576533 -2.94502e-19
      vertex -25.4 -8.10462e-11 -0.0037363
      vertex -25.4 -0.0269549 -0.0037363
    endloop
  endfacet
  facet normal 1 1.94218e-07 6.24764e-08
    outer loop
      vertex -12.7 -11.9709 -5.56522
      vertex -12.7 -9.67575 -12.7
      vertex -12.7 -7.32412 -4.74587
    endloop
  endfacet
  facet normal 1 -0 0
    outer loop
      vertex -12.7 -12.192 -5.57987
      vertex -12.7 -9.67575 -12.7
      vertex -12.7 -11.9709 -5.56522
    endloop
  endfacet
  facet normal 1 0 0
    outer loop
      vertex -12.7 -12.4132 -5.56256
      vertex -12.7 -9.67575 -12.7
      vertex -12.7 -12.192 -5.57987
    endloop
  endfacet
  facet normal 1 0 0
    outer loop
      vertex -12.7 -12.6304 -5.51363
      vertex -12.7 -9.67575 -12.7
      vertex -12.7 -12.4132 -5.56256
    endloop
  endfacet
  facet normal 1 0 0
    outer loop
      vertex -12.7 -12.8392 -5.43403
      vertex -12.7 -9.67575 -12.7
      vertex -12.7 -12.6304 -5.51363
    endloop
  endfacet
  facet normal 1 -6.39805e-06 -2.78555e-06
    outer loop
      vertex -12.7 -13.0356 -5.32532
      vertex -12.7 -9.67575 -12.7
      vertex -12.7 -12.8392 -5.43403
    endloop
  endfacet
  facet normal 1 1.48325e-07 1.96892e-07
    outer loop
      vertex -12.7 -13.2157 -5.1896
      vertex -12.7 -9.67575 -12.7
      vertex -12.7 -13.0356 -5.32532
    endloop
  endfacet
  facet normal 1 2.39232e-07 2.39741e-07
    outer loop
      vertex -12.7 -13.3761 -5.02953
      vertex -12.7 -9.67575 -12.7
      vertex -12.7 -13.2157 -5.1896
    endloop
  endfacet
  facet normal 1 4.50145e-07 3.41488e-07
    outer loop
      vertex -12.7 -13.5137 -4.84821
      vertex -12.7 -9.67575 -12.7
      vertex -12.7 -13.3761 -5.02953
    endloop
  endfacet
  facet normal 1 1.42116e-08 7.9981e-09
    outer loop
      vertex -12.7 -76.2 -12.7
      vertex -12.7 -13.5137 -4.84821
      vertex -12.7 -13.6257 -4.64917
    endloop
  endfacet
  facet normal 1 -1.72976e-23 7.50925e-08
    outer loop
      vertex -12.7 -76.2 -12.7
      vertex -12.7 -14.5079 1.75502e-07
      vertex -12.7 -76.2 1.75502e-07
    endloop
  endfacet
  facet normal 1 1.49171e-08 2.63029e-09
    outer loop
      vertex -12.7 -14.5079 1.75502e-07
      vertex -12.7 -76.2 -12.7
      vertex -12.7 -13.7649 -4.21372
    endloop
  endfacet
  facet normal 1 1.47789e-08 3.64758e-09
    outer loop
      vertex -12.7 -13.7649 -4.21372
      vertex -12.7 -76.2 -12.7
      vertex -12.7 -13.71 -4.4363
    endloop
  endfacet
  facet normal 1 1.45019e-08 5.74236e-09
    outer loop
      vertex -12.7 -13.71 -4.4363
      vertex -12.7 -76.2 -12.7
      vertex -12.7 -13.6257 -4.64917
    endloop
  endfacet
  facet normal 1 0 1.21459e-07
    outer loop
      vertex -12.7 -13.5137 -4.84821
      vertex -12.7 -76.2 -12.7
      vertex -12.7 -9.67575 -12.7
    endloop
  endfacet
  facet normal 0 -1 0
    outer loop
      vertex -25.4 -76.2 -12.7
      vertex -12.7 -76.2 1.75502e-07
      vertex -25.4 -76.2 -3.89242e-15
    endloop
  endfacet
  facet normal 0 -1 -0
    outer loop
      vertex -12.7 -76.2 1.75502e-07
      vertex -25.4 -76.2 -12.7
      vertex -12.7 -76.2 -12.7
    endloop
  endfacet
  facet normal 0 0 -1
    outer loop
      vertex -22.6745 -13.9843 -12.7
      vertex -12.7 -9.67575 -12.7
      vertex -12.7 -76.2 -12.7
    endloop
  endfacet
  facet normal 0 0 -1
    outer loop
      vertex -12.7 -9.67575 -12.7
      vertex -22.006 -12.8659 -12.7
      vertex -21.998 -12.6446 -12.7
    endloop
  endfacet
  facet normal 0 0 -1
    outer loop
      vertex -12.7 -9.67575 -12.7
      vertex -22.0459 -13.0841 -12.7
      vertex -22.006 -12.8659 -12.7
    endloop
  endfacet
  facet normal 0 0 -1
    outer loop
      vertex -12.7 -9.67575 -12.7
      vertex -22.1167 -13.2947 -12.7
      vertex -22.0459 -13.0841 -12.7
    endloop
  endfacet
  facet normal 0 0 -1
    outer loop
      vertex -12.7 -9.67575 -12.7
      vertex -22.2172 -13.4937 -12.7
      vertex -22.1167 -13.2947 -12.7
    endloop
  endfacet
  facet normal 0 0 -1
    outer loop
      vertex -12.7 -9.67575 -12.7
      vertex -22.3454 -13.6774 -12.7
      vertex -22.2172 -13.4937 -12.7
    endloop
  endfacet
  facet normal 0 0 -1
    outer loop
      vertex -12.7 -9.67575 -12.7
      vertex -22.4989 -13.842 -12.7
      vertex -22.3454 -13.6774 -12.7
    endloop
  endfacet
  facet normal 0 0 -1
    outer loop
      vertex -12.7 -9.67575 -12.7
      vertex -22.6745 -13.9843 -12.7
      vertex -22.4989 -13.842 -12.7
    endloop
  endfacet
  facet normal 0 0 -1
    outer loop
      vertex -12.7 -76.2 -12.7
      vertex -22.869 -14.1017 -12.7
      vertex -22.6745 -13.9843 -12.7
    endloop
  endfacet
  facet normal 0 0 -1
    outer loop
      vertex -12.7 -76.2 -12.7
      vertex -23.0784 -14.1918 -12.7
      vertex -22.869 -14.1017 -12.7
    endloop
  endfacet
  facet normal 0 0 -1
    outer loop
      vertex -12.7 -76.2 -12.7
      vertex -23.2988 -14.2528 -12.7
      vertex -23.0784 -14.1918 -12.7
    endloop
  endfacet
  facet normal 0 0 -1
    outer loop
      vertex -12.7 -76.2 -12.7
      vertex -23.5259 -14.2836 -12.7
      vertex -23.2988 -14.2528 -12.7
    endloop
  endfacet
  facet normal 0 0 -1
    outer loop
      vertex -25.4 -76.2 -12.7
      vertex -23.5259 -14.2836 -12.7
      vertex -12.7 -76.2 -12.7
    endloop
  endfacet
  facet normal -0 0 -1
    outer loop
      vertex -23.5259 -14.2836 -12.7
      vertex -25.4 -76.2 -12.7
      vertex -25.4 -14.2836 -12.7
    endloop
  endfacet
  facet normal -0 0 -1
    outer loop
      vertex -12.7 -9.67575 -12.7
      vertex -21.998 -12.6446 -12.7
      vertex -21.998 -5.34 -12.7
    endloop
  endfacet
  facet normal 2.00169e-16 1 6.38571e-17
    outer loop
      vertex -25.4 2.38589e-19 -0.0037363
      vertex -25.4 0 0
      vertex -25.3976 -4.74186e-19 3.27359e-11
    endloop
  endfacet
  facet normal 0 1 0
    outer loop
      vertex -23.5259 -14.2836 -12.7
      vertex -25.4 -14.2836 -12.7
      vertex -25.4 -14.2836 -5.70577
    endloop
  endfacet
  facet normal -0.965926 0 -0.258819
    outer loop
      vertex -21.998 -5.34 -12.7
      vertex -25.4 -0.0269549 -0.0037363
      vertex -25.4 -8.10462e-11 -0.0037363
    endloop
  endfacet
  facet normal -0.965926 3.40227e-08 -0.258819
    outer loop
      vertex -21.998 -5.34 -12.7
      vertex -24.7627 -12.5321 -2.38213
      vertex -25.4 -0.0269549 -0.0037363
    endloop
  endfacet
  facet normal -0.965926 0 -0.258819
    outer loop
      vertex -21.998 -12.6446 -12.7
      vertex -24.7627 -12.5321 -2.38213
      vertex -21.998 -5.34 -12.7
    endloop
  endfacet
  facet normal -0.965926 2.65068e-06 -0.258819
    outer loop
      vertex -24.7627 -12.5321 -2.38213
      vertex -21.998 -12.6446 -12.7
      vertex -24.7606 -12.6446 -2.39016
    endloop
  endfacet
  facet normal -0.965338 0.034887 -0.258661
    outer loop
      vertex -21.998 -12.6446 -12.7
      vertex -24.7627 -12.7532 -2.39678
      vertex -24.7606 -12.6446 -2.39016
    endloop
  endfacet
  facet normal -0.965338 0.0348961 -0.258661
    outer loop
      vertex -22.006 -12.8659 -12.7
      vertex -24.7627 -12.7532 -2.39678
      vertex -21.998 -12.6446 -12.7
    endloop
  endfacet
  facet normal -0.965338 0.0348937 -0.258661
    outer loop
      vertex -24.7627 -12.7532 -2.39678
      vertex -22.006 -12.8659 -12.7
      vertex -24.7696 -12.8659 -2.38616
    endloop
  endfacet
  facet normal -0.39288 0.913544 -0.105272
    outer loop
      vertex -22.869 -14.1017 -12.7
      vertex -25.4 -14.1918 -4.0358
      vertex -25.4 -14.1017 -3.25406
    endloop
  endfacet
  facet normal -0.392878 0.913545 -0.105271
    outer loop
      vertex -25.4 -14.1918 -4.0358
      vertex -22.869 -14.1017 -12.7
      vertex -23.0784 -14.1918 -12.7
    endloop
  endfacet
  facet normal -0.134431 0.990268 -0.0360208
    outer loop
      vertex -23.2988 -14.2528 -12.7
      vertex -25.4 -14.2836 -5.70577
      vertex -25.4 -14.2528 -4.85837
    endloop
  endfacet
  facet normal -0.134432 0.990268 -0.036021
    outer loop
      vertex -25.4 -14.2836 -5.70577
      vertex -23.2988 -14.2528 -12.7
      vertex -23.5259 -14.2836 -12.7
    endloop
  endfacet
  facet normal -0.620886 0.766043 -0.166366
    outer loop
      vertex -22.4989 -13.842 -12.7
      vertex -25.4 -13.9843 -2.52837
      vertex -25.4 -13.842 -1.87285
    endloop
  endfacet
  facet normal -0.620886 0.766044 -0.166366
    outer loop
      vertex -25.4 -13.9843 -2.52837
      vertex -22.4989 -13.842 -12.7
      vertex -22.6745 -13.9843 -12.7
    endloop
  endfacet
  facet normal -0.91865 0.309016 -0.246152
    outer loop
      vertex -22.1167 -13.2947 -12.7
      vertex -24.8219 -13.0841 -2.33979
      vertex -22.0459 -13.0841 -12.7
    endloop
  endfacet
  facet normal -0.918652 0.309011 -0.246152
    outer loop
      vertex -24.8219 -13.0841 -2.33979
      vertex -22.1167 -13.2947 -12.7
      vertex -24.8698 -13.1966 -2.30228
    endloop
  endfacet
  facet normal -0.918649 0.309019 -0.246151
    outer loop
      vertex -24.8698 -13.1966 -2.30228
      vertex -22.1167 -13.2947 -12.7
      vertex -24.9158 -13.2947 -2.25356
    endloop
  endfacet
  facet normal -0.266243 0.961263 -0.0713394
    outer loop
      vertex -23.0784 -14.1918 -12.7
      vertex -25.4 -14.2528 -4.85837
      vertex -25.4 -14.1918 -4.0358
    endloop
  endfacet
  facet normal -0.266242 0.961263 -0.0713394
    outer loop
      vertex -25.4 -14.2528 -4.85837
      vertex -23.0784 -14.1918 -12.7
      vertex -23.2988 -14.2528 -12.7
    endloop
  endfacet
  facet normal -0.511862 0.848048 -0.137153
    outer loop
      vertex -22.6745 -13.9843 -12.7
      vertex -25.4 -14.1017 -3.25406
      vertex -25.4 -13.9843 -2.52837
    endloop
  endfacet
  facet normal -0.511863 0.848048 -0.137153
    outer loop
      vertex -25.4 -14.1017 -3.25406
      vertex -22.6745 -13.9843 -12.7
      vertex -22.869 -14.1017 -12.7
    endloop
  endfacet
  facet normal -0.717821 0.669133 -0.19234
    outer loop
      vertex -22.4989 -13.842 -12.7
      vertex -25.2186 -13.6774 -1.97723
      vertex -22.3454 -13.6774 -12.7
    endloop
  endfacet
  facet normal -0.717823 0.669126 -0.192352
    outer loop
      vertex -25.2186 -13.6774 -1.97723
      vertex -25.4 -13.842 -1.87285
      vertex -25.3733 -13.8054 -1.8454
    endloop
  endfacet
  facet normal -0.717821 0.669132 -0.19234
    outer loop
      vertex -25.2186 -13.6774 -1.97723
      vertex -22.4989 -13.842 -12.7
      vertex -25.4 -13.842 -1.87285
    endloop
  endfacet
  facet normal -0.717829 0.669123 -0.192342
    outer loop
      vertex -25.3733 -13.8054 -1.8454
      vertex -25.4 -13.842 -1.87285
      vertex -25.4 -13.8264 -1.81864
    endloop
  endfacet
  facet normal -0.800788 0.559194 -0.214571
    outer loop
      vertex -22.3454 -13.6774 -12.7
      vertex -25.0492 -13.4937 -2.13107
      vertex -22.2172 -13.4937 -12.7
    endloop
  endfacet
  facet normal -0.800793 0.559186 -0.214572
    outer loop
      vertex -25.0492 -13.4937 -2.13107
      vertex -22.3454 -13.6774 -12.7
      vertex -25.1591 -13.6153 -2.03764
    endloop
  endfacet
  facet normal -0.80079 0.559192 -0.214571
    outer loop
      vertex -25.1591 -13.6153 -2.03764
      vertex -22.3454 -13.6774 -12.7
      vertex -25.2186 -13.6774 -1.97723
    endloop
  endfacet
  facet normal -0.86817 0.438369 -0.232625
    outer loop
      vertex -22.2172 -13.4937 -12.7
      vertex -24.9158 -13.2947 -2.25356
      vertex -22.1167 -13.2947 -12.7
    endloop
  endfacet
  facet normal -0.868167 0.438374 -0.232625
    outer loop
      vertex -24.9158 -13.2947 -2.25356
      vertex -22.2172 -13.4937 -12.7
      vertex -24.9915 -13.4111 -2.19057
    endloop
  endfacet
  facet normal -0.868166 0.438377 -0.232624
    outer loop
      vertex -24.9915 -13.4111 -2.19057
      vertex -22.2172 -13.4937 -12.7
      vertex -25.0492 -13.4937 -2.13107
    endloop
  endfacet
  facet normal -0.951251 0.173649 -0.254887
    outer loop
      vertex -22.0459 -13.0841 -12.7
      vertex -24.7696 -12.8659 -2.38616
      vertex -22.006 -12.8659 -12.7
    endloop
  endfacet
  facet normal -0.951249 0.173659 -0.254887
    outer loop
      vertex -24.7696 -12.8659 -2.38616
      vertex -22.0459 -13.0841 -12.7
      vertex -24.7937 -12.9759 -2.37129
    endloop
  endfacet
  facet normal -0.951251 0.173651 -0.254887
    outer loop
      vertex -24.7937 -12.9759 -2.37129
      vertex -22.0459 -13.0841 -12.7
      vertex -24.8219 -13.0841 -2.33979
    endloop
  endfacet
  facet normal 0.408526 0.875224 -0.259017
    outer loop
      vertex -25.3966 -0.000489658 4.72469e-11
      vertex -25.4 2.38589e-19 -0.0037363
      vertex -25.3976 -4.74186e-19 3.27359e-11
    endloop
  endfacet
  facet normal 0.443379 0.846515 -0.294664
    outer loop
      vertex -25.3966 -0.000489658 4.72469e-11
      vertex -25.4 -8.10462e-11 -0.0037363
      vertex -25.4 2.38589e-19 -0.0037363
    endloop
  endfacet
  facet normal 0.408252 0.875434 -0.25874
    outer loop
      vertex -12.7 -7.32412 -4.74587
      vertex -25.4 -8.10462e-11 -0.0037363
      vertex -25.3966 -0.000489658 4.72469e-11
    endloop
  endfacet
  facet normal 0.408218 0.875426 -0.258819
    outer loop
      vertex -21.998 -5.34 -12.7
      vertex -12.7 -7.32412 -4.74587
      vertex -12.7 -9.67575 -12.7
    endloop
  endfacet
  facet normal 0.408218 0.875426 -0.258819
    outer loop
      vertex -12.7 -7.32412 -4.74587
      vertex -21.998 -5.34 -12.7
      vertex -25.4 -8.10462e-11 -0.0037363
    endloop
  endfacet
  facet normal 0.258819 -0.167731 0.951251
    outer loop
      vertex -12.7 -7.32412 -4.74587
      vertex -24.7627 -12.5321 -2.38213
      vertex -12.7 -11.9709 -5.56522
    endloop
  endfacet
  facet normal 0.258824 -0.167722 0.951251
    outer loop
      vertex -25.4 -0.0269549 -0.0037363
      vertex -12.7 -7.32412 -4.74587
      vertex -25.3966 -0.000489658 4.72469e-11
    endloop
  endfacet
  facet normal 0.25889 -0.167728 0.951233
    outer loop
      vertex -25.4 -0.0269549 -0.0037363
      vertex -25.3966 -0.000489658 4.72469e-11
      vertex -25.4 -0.00576533 -2.94502e-19
    endloop
  endfacet
  facet normal 0.258819 -0.167731 0.951251
    outer loop
      vertex -12.7 -7.32412 -4.74587
      vertex -25.4 -0.0269549 -0.0037363
      vertex -24.7627 -12.5321 -2.38213
    endloop
  endfacet
  facet normal 0.15213 0.698135 0.699617
    outer loop
      vertex -25.3733 -13.8054 -1.8454
      vertex -12.7 -13.3761 -5.02953
      vertex -12.7 -13.2157 -5.1896
    endloop
  endfacet
  facet normal 0.152143 0.698134 0.699615
    outer loop
      vertex -25.4 -13.967 -1.67827
      vertex -25.3733 -13.8054 -1.8454
      vertex -25.4 -13.8264 -1.81864
    endloop
  endfacet
  facet normal 0.15213 0.698137 0.699615
    outer loop
      vertex -25.3733 -13.8054 -1.8454
      vertex -25.4 -13.967 -1.67827
      vertex -12.7 -13.3761 -5.02953
    endloop
  endfacet
  facet normal -2.39965e-09 0.984808 0.173648
    outer loop
      vertex -12.7 -14.5079 1.75502e-07
      vertex -25.4 -14.3558 -0.862466
      vertex -25.4 -14.5079 -7.41088e-16
    endloop
  endfacet
  facet normal -1.58653e-08 0.984808 0.173648
    outer loop
      vertex -25.4 -14.3558 -0.862466
      vertex -12.7 -14.5079 1.75502e-07
      vertex -12.7 -13.7649 -4.21372
    endloop
  endfacet
  facet normal 0.121509 0.790786 0.59991
    outer loop
      vertex -12.7 -13.5137 -4.84821
      vertex -25.4 -13.967 -1.67827
      vertex -25.4 -14.1046 -1.49695
    endloop
  endfacet
  facet normal 0.121508 0.790789 0.599908
    outer loop
      vertex -25.4 -13.967 -1.67827
      vertex -12.7 -13.5137 -4.84821
      vertex -12.7 -13.3761 -5.02953
    endloop
  endfacet
  facet normal 0.179791 0.591897 0.785706
    outer loop
      vertex -25.1591 -13.6153 -2.03764
      vertex -12.7 -13.2157 -5.1896
      vertex -12.7 -13.0356 -5.32532
    endloop
  endfacet
  facet normal 0.17979 0.591899 0.785704
    outer loop
      vertex -25.2186 -13.6774 -1.97723
      vertex -12.7 -13.2157 -5.1896
      vertex -25.1591 -13.6153 -2.03764
    endloop
  endfacet
  facet normal 0.179791 0.591896 0.785707
    outer loop
      vertex -12.7 -13.2157 -5.1896
      vertex -25.2186 -13.6774 -1.97723
      vertex -25.3733 -13.8054 -1.8454
    endloop
  endfacet
  facet normal 0.0180543 0.970708 0.239581
    outer loop
      vertex -12.7 -13.7649 -4.21372
      vertex -25.4 -14.3009 -1.08504
      vertex -25.4 -14.3558 -0.862466
    endloop
  endfacet
  facet normal 0.0180543 0.970708 0.239581
    outer loop
      vertex -25.4 -14.3009 -1.08504
      vertex -12.7 -13.7649 -4.21372
      vertex -12.7 -13.71 -4.4363
    endloop
  endfacet
  facet normal 0.224143 0.347147 0.910631
    outer loop
      vertex -24.8698 -13.1966 -2.30228
      vertex -12.7 -12.8392 -5.43403
      vertex -12.7 -12.6304 -5.51363
    endloop
  endfacet
  facet normal 0.224143 0.347148 0.910631
    outer loop
      vertex -24.9158 -13.2947 -2.25356
      vertex -12.7 -12.8392 -5.43403
      vertex -24.8698 -13.1966 -2.30228
    endloop
  endfacet
  facet normal 0.224143 0.347148 0.910631
    outer loop
      vertex -12.7 -12.8392 -5.43403
      vertex -24.9158 -13.2947 -2.25356
      vertex -24.9915 -13.4111 -2.19057
    endloop
  endfacet
  facet normal 0.257401 -0.0638717 0.964191
    outer loop
      vertex -24.7627 -12.5321 -2.38213
      vertex -12.7 -12.192 -5.57987
      vertex -12.7 -11.9709 -5.56522
    endloop
  endfacet
  facet normal 0.257401 -0.0638732 0.964191
    outer loop
      vertex -12.7 -12.192 -5.57987
      vertex -24.7627 -12.5321 -2.38213
      vertex -24.7606 -12.6446 -2.39016
    endloop
  endfacet
  facet normal 0.257401 -0.0638704 0.964191
    outer loop
      vertex -12.7 -12.192 -5.57987
      vertex -24.7606 -12.6446 -2.39016
      vertex -24.7627 -12.7532 -2.39678
    endloop
  endfacet
  facet normal 0.0538113 0.928414 0.367629
    outer loop
      vertex -12.7 -13.71 -4.4363
      vertex -25.4 -14.2166 -1.29792
      vertex -25.4 -14.3009 -1.08504
    endloop
  endfacet
  facet normal 0.0538111 0.928415 0.367628
    outer loop
      vertex -25.4 -14.2166 -1.29792
      vertex -12.7 -13.71 -4.4363
      vertex -12.7 -13.6257 -4.64917
    endloop
  endfacet
  facet normal 0.0885208 0.86805 0.488521
    outer loop
      vertex -12.7 -13.6257 -4.64917
      vertex -25.4 -14.1046 -1.49695
      vertex -25.4 -14.2166 -1.29792
    endloop
  endfacet
  facet normal 0.0885218 0.868048 0.488525
    outer loop
      vertex -25.4 -14.1046 -1.49695
      vertex -12.7 -13.6257 -4.64917
      vertex -12.7 -13.5137 -4.84821
    endloop
  endfacet
  facet normal 0.251131 0.0754987 0.965004
    outer loop
      vertex -24.7627 -12.7532 -2.39678
      vertex -12.7 -12.4132 -5.56256
      vertex -12.7 -12.192 -5.57987
    endloop
  endfacet
  facet normal 0.251131 0.0754976 0.965004
    outer loop
      vertex -24.7696 -12.8659 -2.38616
      vertex -12.7 -12.4132 -5.56256
      vertex -24.7627 -12.7532 -2.39678
    endloop
  endfacet
  facet normal 0.251131 0.0754964 0.965004
    outer loop
      vertex -12.7 -12.4132 -5.56256
      vertex -24.7696 -12.8659 -2.38616
      vertex -24.7937 -12.9759 -2.37129
    endloop
  endfacet
  facet normal 0.203952 0.474132 0.856506
    outer loop
      vertex -24.9915 -13.4111 -2.19057
      vertex -12.7 -13.0356 -5.32532
      vertex -12.7 -12.8392 -5.43403
    endloop
  endfacet
  facet normal 0.203953 0.474131 0.856507
    outer loop
      vertex -25.0492 -13.4937 -2.13107
      vertex -12.7 -13.0356 -5.32532
      vertex -24.9915 -13.4111 -2.19057
    endloop
  endfacet
  facet normal 0.203953 0.474132 0.856506
    outer loop
      vertex -12.7 -13.0356 -5.32532
      vertex -25.0492 -13.4937 -2.13107
      vertex -25.1591 -13.6153 -2.03764
    endloop
  endfacet
  facet normal 0.239973 0.213393 0.947035
    outer loop
      vertex -24.7937 -12.9759 -2.37129
      vertex -12.7 -12.6304 -5.51363
      vertex -12.7 -12.4132 -5.56256
    endloop
  endfacet
  facet normal 0.239973 0.213395 0.947035
    outer loop
      vertex -24.8219 -13.0841 -2.33979
      vertex -12.7 -12.6304 -5.51363
      vertex -24.7937 -12.9759 -2.37129
    endloop
  endfacet
  facet normal 0.239973 0.213394 0.947035
    outer loop
      vertex -12.7 -12.6304 -5.51363
      vertex -24.8219 -13.0841 -2.33979
      vertex -24.8698 -13.1966 -2.30228
    endloop
  endfacet
  facet normal -9.63717e-08 -1.39247e-09 1
    outer loop
      vertex 15.875 -5.30994 -7.20524e-07
      vertex 28.575 -76.2 4.04685e-07
      vertex 16.567 -4.15216 -6.5222e-07
    endloop
  endfacet
  facet normal -9.63719e-08 -1.3925e-09 1
    outer loop
      vertex 28.575 -76.2 4.04685e-07
      vertex 15.875 -5.30994 -7.20524e-07
      vertex 15.875 -76.2 -8.19238e-07
    endloop
  endfacet
  facet normal 1 3.57746e-08 -9.41957e-09
    outer loop
      vertex 28.575 -22.8006 -12.382
      vertex 28.575 -76.2 -12.7
      vertex 28.575 -22.8843 -12.7
    endloop
  endfacet
  facet normal 1 3.57848e-08 -1.11204e-08
    outer loop
      vertex 28.575 -22.5635 -11.619
      vertex 28.575 -76.2 -12.7
      vertex 28.575 -22.8006 -12.382
    endloop
  endfacet
  facet normal 1 3.58281e-08 -1.32683e-08
    outer loop
      vertex 28.575 -22.3154 -10.9489
      vertex 28.575 -76.2 -12.7
      vertex 28.575 -22.5635 -11.619
    endloop
  endfacet
  facet normal 1 3.59233e-08 -1.61983e-08
    outer loop
      vertex 28.575 -22.061 -10.3849
      vertex 28.575 -76.2 -12.7
      vertex 28.575 -22.3154 -10.9489
    endloop
  endfacet
  facet normal 1 3.60569e-08 -1.93228e-08
    outer loop
      vertex 28.575 -76.2 -12.7
      vertex 28.575 -22.061 -10.3849
      vertex 28.575 -18.1136 -3.01894
    endloop
  endfacet
  facet normal -7.95404e-08 1.41274e-09 1
    outer loop
      vertex 16.567 -4.15216 -6.5222e-07
      vertex 28.575 -16.4958 3.20337e-07
      vertex 19.0512 1.75633e-11 -4.60497e-07
    endloop
  endfacet
  facet normal -7.95343e-08 1.40909e-09 1
    outer loop
      vertex 16.567 -4.15216 -6.5222e-07
      vertex 19.0512 1.75633e-11 -4.60497e-07
      vertex 19.0488 -1.75674e-11 -4.60681e-07
    endloop
  endfacet
  facet normal -7.95404e-08 1.41275e-09 1
    outer loop
      vertex 28.575 -16.4958 3.20337e-07
      vertex 16.567 -4.15216 -6.5222e-07
      vertex 28.575 -76.2 4.04685e-07
    endloop
  endfacet
  facet normal -1.51969e-08 1 4.58605e-08
    outer loop
      vertex 19.0499 1.82381e-10 -0.00400455
      vertex 19.0488 -1.75674e-11 -4.60681e-07
      vertex 19.0512 1.75633e-11 -4.60497e-07
    endloop
  endfacet
  facet normal 1 3.19466e-08 -1.71201e-08
    outer loop
      vertex 28.575 -76.2 4.04685e-07
      vertex 28.575 -18.1136 -3.01894
      vertex 28.575 -16.4958 3.20337e-07
    endloop
  endfacet
  facet normal 1 3.28364e-08 0
    outer loop
      vertex 28.575 -18.1136 -3.01894
      vertex 28.575 -76.2 4.04685e-07
      vertex 28.575 -76.2 -12.7
    endloop
  endfacet
  facet normal 0 -1 -0
    outer loop
      vertex 28.575 -76.2 4.04685e-07
      vertex 15.875 -76.2 -8.19238e-07
      vertex 28.575 -76.2 -12.7
    endloop
  endfacet
  facet normal -1 0 0
    outer loop
      vertex 15.875 -76.2 -8.19238e-07
      vertex 15.875 -10.9992 -12.7
      vertex 15.875 -76.2 -12.7
    endloop
  endfacet
  facet normal -1 0 0
    outer loop
      vertex 15.875 -10.9992 -12.7
      vertex 15.875 -76.2 -8.19238e-07
      vertex 15.875 -10.9501 -12.5815
    endloop
  endfacet
  facet normal -1 0 0
    outer loop
      vertex 15.875 -10.9501 -12.5815
      vertex 15.875 -76.2 -8.19238e-07
      vertex 15.875 -5.30994 -7.20524e-07
    endloop
  endfacet
  facet normal 0 0 -1
    outer loop
      vertex 25.5613 -18.0819 -12.7
      vertex 15.9068 -10.9501 -12.7
      vertex 18.7233 -6.23797 -12.7
    endloop
  endfacet
  facet normal 0 0 -1
    outer loop
      vertex 15.875 -10.9992 -12.7
      vertex 25.5613 -18.0819 -12.7
      vertex 15.875 -76.2 -12.7
    endloop
  endfacet
  facet normal 0 0 -1
    outer loop
      vertex 25.5613 -18.0819 -12.7
      vertex 15.875 -10.9992 -12.7
      vertex 15.9068 -10.9501 -12.7
    endloop
  endfacet
  facet normal 7.50925e-08 -1.78873e-08 -1
    outer loop
      vertex 15.875 -76.2 -12.7
      vertex 28.575 -22.8843 -12.7
      vertex 28.575 -76.2 -12.7
    endloop
  endfacet
  facet normal -0 0 -1
    outer loop
      vertex 28.575 -22.8843 -12.7
      vertex 15.875 -76.2 -12.7
      vertex 28.5012 -22.8432 -12.7
    endloop
  endfacet
  facet normal -0 0 -1
    outer loop
      vertex 28.5012 -22.8432 -12.7
      vertex 15.875 -76.2 -12.7
      vertex 28.3241 -22.7083 -12.7
    endloop
  endfacet
  facet normal -0 0 -1
    outer loop
      vertex 28.3241 -22.7083 -12.7
      vertex 15.875 -76.2 -12.7
      vertex 28.1687 -22.55 -12.7
    endloop
  endfacet
  facet normal -0 0 -1
    outer loop
      vertex 28.1687 -22.55 -12.7
      vertex 15.875 -76.2 -12.7
      vertex 28.0378 -22.3712 -12.7
    endloop
  endfacet
  facet normal -0 0 -1
    outer loop
      vertex 28.0378 -22.3712 -12.7
      vertex 15.875 -76.2 -12.7
      vertex 25.5613 -18.0819 -12.7
    endloop
  endfacet
  facet normal 0 -1 0
    outer loop
      vertex 15.875 -76.2 -8.19238e-07
      vertex 15.875 -76.2 -12.7
      vertex 28.575 -76.2 -12.7
    endloop
  endfacet
  facet normal -0.836479 0.499978 -0.224331
    outer loop
      vertex 19.0499 1.82381e-10 -0.00400455
      vertex 16.567 -4.15216 -6.5222e-07
      vertex 19.0488 -1.75674e-11 -4.60681e-07
    endloop
  endfacet
  facet normal -0.836516 0.5 -0.224144
    outer loop
      vertex 18.7233 -6.23797 -12.7
      vertex 16.567 -4.15216 -6.5222e-07
      vertex 19.0499 1.82381e-10 -0.00400455
    endloop
  endfacet
  facet normal -0.836516 0.500001 -0.224144
    outer loop
      vertex 16.567 -4.15216 -6.5222e-07
      vertex 18.7233 -6.23797 -12.7
      vertex 15.875 -5.30994 -7.20524e-07
    endloop
  endfacet
  facet normal -0.836516 0.5 -0.224145
    outer loop
      vertex 15.875 -10.9501 -12.5815
      vertex 18.7233 -6.23797 -12.7
      vertex 15.9068 -10.9501 -12.7
    endloop
  endfacet
  facet normal -0.836516 0.5 -0.224144
    outer loop
      vertex 18.7233 -6.23797 -12.7
      vertex 15.875 -10.9501 -12.5815
      vertex 15.875 -5.30994 -7.20524e-07
    endloop
  endfacet
  facet normal -0.819153 0.529916 -0.219493
    outer loop
      vertex 15.875 -10.9501 -12.5815
      vertex 15.9068 -10.9501 -12.7
      vertex 15.875 -10.9992 -12.7
    endloop
  endfacet
  facet normal 0.836562 0.482989 -0.258624
    outer loop
      vertex 28.575 -16.4958 3.20337e-07
      vertex 19.0499 1.82381e-10 -0.00400455
      vertex 19.0512 1.75633e-11 -4.60497e-07
    endloop
  endfacet
  facet normal 0.836516 0.482963 -0.258819
    outer loop
      vertex 19.0499 1.82381e-10 -0.00400455
      vertex 28.575 -16.4958 3.20337e-07
      vertex 18.7233 -6.23797 -12.7
    endloop
  endfacet
  facet normal 0.836516 0.482963 -0.258819
    outer loop
      vertex 28.575 -18.1136 -3.01894
      vertex 18.7233 -6.23797 -12.7
      vertex 28.575 -16.4958 3.20337e-07
    endloop
  endfacet
  facet normal 0.836516 0.482963 -0.258819
    outer loop
      vertex 18.7233 -6.23797 -12.7
      vertex 28.575 -18.1136 -3.01894
      vertex 25.5613 -18.0819 -12.7
    endloop
  endfacet
  facet normal 0.836516 0.482963 -0.258819
    outer loop
      vertex 28.575 -22.061 -10.3849
      vertex 25.5613 -18.0819 -12.7
      vertex 28.575 -18.1136 -3.01894
    endloop
  endfacet
  facet normal 0.836516 0.482963 -0.258819
    outer loop
      vertex 25.5613 -18.0819 -12.7
      vertex 28.575 -22.061 -10.3849
      vertex 28.0378 -22.3712 -12.7
    endloop
  endfacet
  facet normal 0.47445 0.851268 -0.224141
    outer loop
      vertex 28.575 -22.8006 -12.382
      vertex 28.575 -22.8843 -12.7
      vertex 28.5012 -22.8432 -12.7
    endloop
  endfacet
  facet normal 0.779669 0.570843 -0.257401
    outer loop
      vertex 28.575 -22.3154 -10.9489
      vertex 28.0378 -22.3712 -12.7
      vertex 28.575 -22.061 -10.3849
    endloop
  endfacet
  facet normal 0.77967 0.570842 -0.257401
    outer loop
      vertex 28.0378 -22.3712 -12.7
      vertex 28.575 -22.3154 -10.9489
      vertex 28.1687 -22.55 -12.7
    endloop
  endfacet
  facet normal 0.690709 0.678125 -0.251131
    outer loop
      vertex 28.575 -22.5635 -11.619
      vertex 28.1687 -22.55 -12.7
      vertex 28.575 -22.3154 -10.9489
    endloop
  endfacet
  facet normal 0.690706 0.678129 -0.25113
    outer loop
      vertex 28.1687 -22.55 -12.7
      vertex 28.575 -22.5635 -11.619
      vertex 28.3241 -22.7083 -12.7
    endloop
  endfacet
  facet normal 0.588301 0.772215 -0.239969
    outer loop
      vertex 28.3241 -22.7083 -12.7
      vertex 28.575 -22.8006 -12.382
      vertex 28.5012 -22.8432 -12.7
    endloop
  endfacet
  facet normal 0.588304 0.772212 -0.239972
    outer loop
      vertex 28.575 -22.8006 -12.382
      vertex 28.3241 -22.7083 -12.7
      vertex 28.575 -22.5635 -11.619
    endloop
  endfacet
endsolid OpenSCAD_Model
