solid OpenSCAD_Model
  facet normal -2.04154e-08 -2.12453e-09 1
    outer loop
      vertex -4.9305 -17.7218 -1.95328e-07
      vertex -2.73917 -13.148 -1.40874e-07
      vertex -3.65828 -13.148 -1.59638e-07
    endloop
  endfacet
  facet normal -2.04154e-08 -2.12453e-09 1
    outer loop
      vertex -2.73917 -13.148 -1.40874e-07
      vertex -4.9305 -17.7218 -1.95328e-07
      vertex 7.7695 -76.2 -6.02911e-08
    endloop
  endfacet
  facet normal -2.04154e-08 -2.12453e-09 1
    outer loop
      vertex 7.7695 -76.2 -6.02911e-08
      vertex -4.9305 -17.7218 -1.95328e-07
      vertex -4.9305 -76.2 -3.19567e-07
    endloop
  endfacet
  facet normal 0 -1 0
    outer loop
      vertex 7.7695 -76.2 -12.7
      vertex 7.7695 -76.2 -6.02911e-08
      vertex -4.9305 -76.2 -3.19567e-07
    endloop
  endfacet
  facet normal -1 2.39211e-09 3.75462e-08
    outer loop
      vertex -4.9305 -76.2 -3.19567e-07
      vertex -4.9305 -21.0732 -3.51219
      vertex -4.9305 -76.2 -12.7
    endloop
  endfacet
  facet normal -1 0 0
    outer loop
      vertex -4.9305 -21.0732 -3.51219
      vertex -4.9305 -76.2 -3.19567e-07
      vertex -4.9305 -20.9654 -3.38626
    endloop
  endfacet
  facet normal -1 1.33927e-08 2.18454e-07
    outer loop
      vertex -4.9305 -20.9654 -3.38626
      vertex -4.9305 -76.2 -3.19567e-07
      vertex -4.9305 -19.0463 -1.32112
    endloop
  endfacet
  facet normal -1 8.15409e-09 -8.17501e-09
    outer loop
      vertex -4.9305 -19.0463 -1.32112
      vertex -4.9305 -76.2 -3.19567e-07
      vertex -4.9305 -17.7218 -1.95328e-07
    endloop
  endfacet
  facet normal 3.38793e-09 1.8427e-09 1
    outer loop
      vertex 7.7695 -76.2 -6.02911e-08
      vertex 7.7695 -13.148 -1.76477e-07
      vertex -2.73917 -13.148 -1.40874e-07
    endloop
  endfacet
  facet normal 3.38728e-09 1.8408e-09 1
    outer loop
      vertex 0.00237406 4.54214e-07 -1.7439e-07
      vertex -3.87191e-23 -0.00373695 -1.74375e-07
      vertex 0.0113089 -0.00416592 -1.74413e-07
    endloop
  endfacet
  facet normal 3.38496e-09 1.84227e-09 1
    outer loop
      vertex -0.00103911 4.54343e-07 -1.74379e-07
      vertex -3.87191e-23 -0.00373695 -1.74375e-07
      vertex 0.00237406 4.54214e-07 -1.7439e-07
    endloop
  endfacet
  facet normal 3.38664e-09 1.84274e-09 1
    outer loop
      vertex -3.87191e-23 -0.00373695 -1.74375e-07
      vertex -0.00103911 4.54343e-07 -1.74379e-07
      vertex -0.00210087 -0.00381664 -1.74368e-07
    endloop
  endfacet
  facet normal -0 0 -1
    outer loop
      vertex 6.77542 -5.96445 -12.7
      vertex -1.25791 -14.0772 -12.7
      vertex 1.56592 -3.53522 -12.7
    endloop
  endfacet
  facet normal 0 0 -1
    outer loop
      vertex 6.77542 -5.96445 -12.7
      vertex -4.9305 -27.7146 -12.7
      vertex -1.25791 -14.0772 -12.7
    endloop
  endfacet
  facet normal 0 -0 -1
    outer loop
      vertex -4.9305 -27.7146 -12.7
      vertex 6.77542 -5.96445 -12.7
      vertex -4.9305 -76.2 -12.7
    endloop
  endfacet
  facet normal 1 0 0
    outer loop
      vertex 7.7695 -10.8651 -2.60043
      vertex 7.7695 -4.17073 -1.93211
      vertex 7.7695 -3.82469 -0.713963
    endloop
  endfacet
  facet normal 1 -0 0
    outer loop
      vertex 7.7695 -10.8651 -2.60043
      vertex 7.7695 -4.67755 -3.87337
      vertex 7.7695 -4.17073 -1.93211
    endloop
  endfacet
  facet normal 1 0 0
    outer loop
      vertex 7.7695 -10.8651 -2.60043
      vertex 7.7695 -5.14223 -5.82327
      vertex 7.7695 -4.67755 -3.87337
    endloop
  endfacet
  facet normal 1 0 0
    outer loop
      vertex 7.7695 -10.8651 -2.60043
      vertex 7.7695 -5.56457 -7.78106
      vertex 7.7695 -5.14223 -5.82327
    endloop
  endfacet
  facet normal 1 -0 0
    outer loop
      vertex 7.7695 -10.8873 -2.60394
      vertex 7.7695 -5.56457 -7.78106
      vertex 7.7695 -10.8651 -2.60043
    endloop
  endfacet
  facet normal 1 -0 0
    outer loop
      vertex 7.7695 -11.0838 -2.63502
      vertex 7.7695 -5.56457 -7.78106
      vertex 7.7695 -10.8873 -2.60394
    endloop
  endfacet
  facet normal 1 1.91709e-07 2.05614e-07
    outer loop
      vertex 7.7695 -5.56457 -7.78106
      vertex 7.7695 -11.0838 -2.63502
      vertex 7.7695 -5.94442 -9.74599
    endloop
  endfacet
  facet normal 1 -1.12031e-09 6.62469e-08
    outer loop
      vertex 7.7695 -11.1061 -2.6354
      vertex 7.7695 -5.94442 -9.74599
      vertex 7.7695 -11.0838 -2.63502
    endloop
  endfacet
  facet normal 1 -1.12037e-09 6.62468e-08
    outer loop
      vertex 7.7695 -11.3053 -2.63877
      vertex 7.7695 -5.94442 -9.74599
      vertex 7.7695 -11.1061 -2.6354
    endloop
  endfacet
  facet normal 1 9.14548e-09 7.39902e-08
    outer loop
      vertex 7.7695 -11.3269 -2.6361
      vertex 7.7695 -5.94442 -9.74599
      vertex 7.7695 -11.3053 -2.63877
    endloop
  endfacet
  facet normal 1 9.14529e-09 7.39901e-08
    outer loop
      vertex 7.7695 -11.5252 -2.61159
      vertex 7.7695 -5.94442 -9.74599
      vertex 7.7695 -11.3269 -2.6361
    endloop
  endfacet
  facet normal 1 -7.01111e-08 1.19931e-08
    outer loop
      vertex 7.7695 -5.94442 -9.74599
      vertex 7.7695 -11.5252 -2.61159
      vertex 7.7695 -6.27095 -11.6548
    endloop
  endfacet
  facet normal 1 1.68135e-08 6.24974e-08
    outer loop
      vertex 7.7695 -11.5455 -2.60612
      vertex 7.7695 -6.27095 -11.6548
      vertex 7.7695 -11.5252 -2.61159
    endloop
  endfacet
  facet normal 1 1.68134e-08 6.24973e-08
    outer loop
      vertex 7.7695 -11.7392 -2.55402
      vertex 7.7695 -6.27095 -11.6548
      vertex 7.7695 -11.5455 -2.60612
    endloop
  endfacet
  facet normal 1 2.99796e-08 7.04083e-08
    outer loop
      vertex 7.7695 -11.7577 -2.54615
      vertex 7.7695 -6.27095 -11.6548
      vertex 7.7695 -11.7392 -2.55402
    endloop
  endfacet
  facet normal 1 2.99797e-08 7.04083e-08
    outer loop
      vertex 7.7695 -11.9431 -2.46718
      vertex 7.7695 -6.27095 -11.6548
      vertex 7.7695 -11.7577 -2.54615
    endloop
  endfacet
  facet normal 1 4.97831e-08 8.26344e-08
    outer loop
      vertex 7.7695 -11.9594 -2.45741
      vertex 7.7695 -6.27095 -11.6548
      vertex 7.7695 -11.9431 -2.46718
    endloop
  endfacet
  facet normal 1 4.97814e-08 8.26333e-08
    outer loop
      vertex 7.7695 -12.1331 -2.35275
      vertex 7.7695 -6.27095 -11.6548
      vertex 7.7695 -11.9594 -2.45741
    endloop
  endfacet
  facet normal 1 8.51621e-08 1.0493e-07
    outer loop
      vertex 7.7695 -12.1467 -2.34169
      vertex 7.7695 -6.27095 -11.6548
      vertex 7.7695 -12.1331 -2.35275
    endloop
  endfacet
  facet normal 1 8.51625e-08 1.0493e-07
    outer loop
      vertex 7.7695 -12.3053 -2.21297
      vertex 7.7695 -6.27095 -11.6548
      vertex 7.7695 -12.1467 -2.34169
    endloop
  endfacet
  facet normal 1 1.73161e-07 1.61171e-07
    outer loop
      vertex 7.7695 -12.3162 -2.20125
      vertex 7.7695 -6.27095 -11.6548
      vertex 7.7695 -12.3053 -2.21297
    endloop
  endfacet
  facet normal 1 1.73184e-07 1.61186e-07
    outer loop
      vertex 7.7695 -12.4565 -2.05056
      vertex 7.7695 -6.27095 -11.6548
      vertex 7.7695 -12.3162 -2.20125
    endloop
  endfacet
  facet normal 1 7.65266e-09 5.35003e-09
    outer loop
      vertex 7.7695 -76.2 -6.02911e-08
      vertex 7.7695 -12.4565 -2.05056
      vertex 7.7695 -12.4647 -2.03882
    endloop
  endfacet
  facet normal 1 7.65266e-09 5.35e-09
    outer loop
      vertex 7.7695 -76.2 -6.02911e-08
      vertex 7.7695 -12.4647 -2.03882
      vertex 7.7695 -12.5836 -1.86867
    endloop
  endfacet
  facet normal 1 0 0
    outer loop
      vertex 7.7695 -12.6843 -1.67085
      vertex 7.7695 -12.5836 -1.86867
      vertex 7.7695 -12.5893 -1.85751
    endloop
  endfacet
  facet normal 1 9.26974e-09 5.56184e-08
    outer loop
      vertex 7.7695 -12.4565 -2.05056
      vertex 7.7695 -76.2 -6.02911e-08
      vertex 7.7695 -6.27095 -11.6548
    endloop
  endfacet
  facet normal 1 7.60927e-09 3.87262e-09
    outer loop
      vertex 7.7695 -12.6843 -1.67085
      vertex 7.7695 -76.2 -6.02911e-08
      vertex 7.7695 -12.5836 -1.86867
    endloop
  endfacet
  facet normal 1 7.57599e-09 2.60759e-09
    outer loop
      vertex 7.7695 -12.6878 -1.66078
      vertex 7.7695 -76.2 -6.02911e-08
      vertex 7.7695 -12.6843 -1.67085
    endloop
  endfacet
  facet normal 1 7.57598e-09 2.60726e-09
    outer loop
      vertex 7.7695 -12.7565 -1.46094
      vertex 7.7695 -76.2 -6.02911e-08
      vertex 7.7695 -12.6878 -1.66078
    endloop
  endfacet
  facet normal 1 7.5626e-09 2.02639e-09
    outer loop
      vertex 7.7695 -76.2 -6.02911e-08
      vertex 7.7695 -12.7565 -1.46094
      vertex 7.7695 -13.148 -1.76477e-07
    endloop
  endfacet
  facet normal 1 0 0
    outer loop
      vertex 7.7695 -76.2 -6.02911e-08
      vertex 7.7695 -6.28163 -11.7173
      vertex 7.7695 -6.27095 -11.6548
    endloop
  endfacet
  facet normal 1 -6.2922e-09 -3.75462e-08
    outer loop
      vertex 7.7695 -76.2 -12.7
      vertex 7.7695 -6.28163 -11.7173
      vertex 7.7695 -76.2 -6.02911e-08
    endloop
  endfacet
  facet normal 1 -6.83422e-09 1.01788e-09
    outer loop
      vertex 7.7695 -6.28163 -11.7173
      vertex 7.7695 -76.2 -12.7
      vertex 7.7695 -6.42799 -12.7
    endloop
  endfacet
  facet normal 0 0 -1
    outer loop
      vertex -4.9305 -76.2 -12.7
      vertex 7.7695 -6.42799 -12.7
      vertex 7.7695 -76.2 -12.7
    endloop
  endfacet
  facet normal -0 0 -1
    outer loop
      vertex 7.7695 -6.42799 -12.7
      vertex -4.9305 -76.2 -12.7
      vertex 6.77542 -5.96445 -12.7
    endloop
  endfacet
  facet normal 0 -1 0
    outer loop
      vertex 7.7695 -76.2 -12.7
      vertex -4.9305 -76.2 -3.19567e-07
      vertex -4.9305 -76.2 -12.7
    endloop
  endfacet
  facet normal -1 5.79108e-08 -2.95566e-07
    outer loop
      vertex -4.9305 -22.7324 -5.45059
      vertex -4.9305 -76.2 -12.7
      vertex -4.9305 -21.0732 -3.51219
    endloop
  endfacet
  facet normal -1 1.99537e-08 -1.56154e-08
    outer loop
      vertex -4.9305 -24.3466 -7.51334
      vertex -4.9305 -76.2 -12.7
      vertex -4.9305 -22.7324 -5.45059
    endloop
  endfacet
  facet normal -1 1.97957e-08 -1.40361e-08
    outer loop
      vertex -4.9305 -25.8075 -9.57369
      vertex -4.9305 -76.2 -12.7
      vertex -4.9305 -24.3466 -7.51334
    endloop
  endfacet
  facet normal -1 1.97015e-08 -1.25165e-08
    outer loop
      vertex -4.9305 -27.1145 -11.6309
      vertex -4.9305 -76.2 -12.7
      vertex -4.9305 -25.8075 -9.57369
    endloop
  endfacet
  facet normal -1 1.96693e-08 -1.10408e-08
    outer loop
      vertex -4.9305 -76.2 -12.7
      vertex -4.9305 -27.1145 -11.6309
      vertex -4.9305 -27.7146 -12.7
    endloop
  endfacet
  facet normal 3.79798e-08 1 -3.32356e-09
    outer loop
      vertex 0.00220924 4.54219e-07 -0.000250285
      vertex -0.00103911 4.54343e-07 -1.74379e-07
      vertex 0.00237406 4.54214e-07 -1.7439e-07
    endloop
  endfacet
  facet normal 3.79777e-08 1 -3.35052e-09
    outer loop
      vertex 0.00220924 4.54219e-07 -0.000250285
      vertex -0.000966908 4.5434e-07 -0.000259082
      vertex -0.00103911 4.54343e-07 -1.74379e-07
    endloop
  endfacet
  facet normal 3.79777e-08 1 -3.33597e-09
    outer loop
      vertex -0.000966908 4.5434e-07 -0.000259082
      vertex 0.00220924 4.54219e-07 -0.000250285
      vertex -2.59108e-05 4.54292e-07 -0.00391934
    endloop
  endfacet
  facet normal -0.958367 0.256714 -0.125023
    outer loop
      vertex -1.25791 -14.0772 -12.7
      vertex 1.5063 -3.3971 -11.9593
      vertex 1.56592 -3.53522 -12.7
    endloop
  endfacet
  facet normal -0.955474 0.257311 -0.144434
    outer loop
      vertex -1.25791 -14.0772 -12.7
      vertex 1.48242 -3.34992 -11.7173
      vertex 1.5063 -3.3971 -11.9593
    endloop
  endfacet
  facet normal -0.955474 0.257311 -0.144433
    outer loop
      vertex -1.25791 -14.0772 -12.7
      vertex 1.31801 -2.97207 -9.95658
      vertex 1.48242 -3.34992 -11.7173
    endloop
  endfacet
  facet normal -0.955474 0.257311 -0.144434
    outer loop
      vertex -1.25791 -14.0772 -12.7
      vertex -4.9305 -27.1145 -11.6309
      vertex 1.31801 -2.97207 -9.95658
    endloop
  endfacet
  facet normal -0.955474 0.257311 -0.144434
    outer loop
      vertex -4.9305 -27.1145 -11.6309
      vertex -1.25791 -14.0772 -12.7
      vertex -4.9305 -27.7146 -12.7
    endloop
  endfacet
  facet normal -0.952212 0.257809 -0.163789
    outer loop
      vertex 1.29451 -2.92509 -9.74599
      vertex -4.9305 -25.8075 -9.57369
      vertex 1.10438 -2.49052 -7.95665
    endloop
  endfacet
  facet normal -0.952212 0.257809 -0.163789
    outer loop
      vertex 1.31801 -2.97207 -9.95658
      vertex -4.9305 -25.8075 -9.57369
      vertex 1.29451 -2.92509 -9.74599
    endloop
  endfacet
  facet normal -0.952212 0.257809 -0.163789
    outer loop
      vertex -4.9305 -25.8075 -9.57369
      vertex 1.31801 -2.97207 -9.95658
      vertex -4.9305 -27.1145 -11.6309
    endloop
  endfacet
  facet normal -0.948583 0.258208 -0.183082
    outer loop
      vertex 1.08251 -2.44638 -7.78106
      vertex -4.9305 -24.3466 -7.51334
      vertex 0.865549 -1.95242 -5.96029
    endloop
  endfacet
  facet normal -0.948583 0.258208 -0.183082
    outer loop
      vertex 1.10438 -2.49052 -7.95665
      vertex -4.9305 -24.3466 -7.51334
      vertex 1.08251 -2.44638 -7.78106
    endloop
  endfacet
  facet normal -0.948583 0.258208 -0.183082
    outer loop
      vertex -4.9305 -24.3466 -7.51334
      vertex 1.10438 -2.49052 -7.95665
      vertex -4.9305 -25.8075 -9.57369
    endloop
  endfacet
  facet normal -0.944589 0.258507 -0.202303
    outer loop
      vertex 0.846699 -1.91407 -5.82327
      vertex -4.9305 -22.7324 -5.45059
      vertex 0.60166 -1.35775 -3.96825
    endloop
  endfacet
  facet normal -0.944588 0.258507 -0.202303
    outer loop
      vertex 0.865549 -1.95242 -5.96029
      vertex -4.9305 -22.7324 -5.45059
      vertex 0.846699 -1.91407 -5.82327
    endloop
  endfacet
  facet normal -0.944589 0.258507 -0.202303
    outer loop
      vertex -4.9305 -22.7324 -5.45059
      vertex 0.865549 -1.95242 -5.96029
      vertex -4.9305 -24.3466 -7.51334
    endloop
  endfacet
  facet normal -0.94023 0.258707 -0.221447
    outer loop
      vertex 0.587367 -1.32847 -3.87337
      vertex -2.05251 -9.84566 -2.6151
      vertex 0.312879 -0.706491 -1.9813
    endloop
  endfacet
  facet normal -0.94023 0.258707 -0.221446
    outer loop
      vertex 0.60166 -1.35775 -3.96825
      vertex -2.05251 -9.84566 -2.6151
      vertex 0.587367 -1.32847 -3.87337
    endloop
  endfacet
  facet normal -0.94023 0.258707 -0.221447
    outer loop
      vertex 0.60166 -1.35775 -3.96825
      vertex -2.2552 -10.7947 -2.8632
      vertex -2.05251 -9.84566 -2.6151
    endloop
  endfacet
  facet normal -0.940232 0.258708 -0.221438
    outer loop
      vertex 0.60166 -1.35775 -3.96825
      vertex -2.26225 -10.8241 -2.86765
      vertex -2.2552 -10.7947 -2.8632
    endloop
  endfacet
  facet normal -0.94023 0.258707 -0.221447
    outer loop
      vertex 0.60166 -1.35775 -3.96825
      vertex -2.30769 -11.0138 -2.89635
      vertex -2.26225 -10.8241 -2.86765
    endloop
  endfacet
  facet normal -0.94023 0.258707 -0.221447
    outer loop
      vertex -4.9305 -22.7324 -5.45059
      vertex -2.30769 -11.0138 -2.89635
      vertex 0.60166 -1.35775 -3.96825
    endloop
  endfacet
  facet normal -0.940227 0.258709 -0.221459
    outer loop
      vertex -2.30769 -11.0138 -2.89635
      vertex -4.9305 -22.7324 -5.45059
      vertex -2.31752 -11.0498 -2.89669
    endloop
  endfacet
  facet normal -0.906914 0.207048 -0.366931
    outer loop
      vertex -2.4357 -11.4561 -2.86953
      vertex -2.50872 -11.6706 -2.81009
      vertex -2.45265 -11.5059 -2.85573
    endloop
  endfacet
  facet normal -0.940229 0.258708 -0.221451
    outer loop
      vertex -4.9305 -22.7324 -5.45059
      vertex -2.56001 -11.8065 -2.75108
      vertex -2.52974 -11.7263 -2.7859
    endloop
  endfacet
  facet normal -0.94023 0.258707 -0.221446
    outer loop
      vertex -4.9305 -22.7324 -5.45059
      vertex -2.52974 -11.7263 -2.7859
      vertex -2.50872 -11.6706 -2.81009
    endloop
  endfacet
  facet normal -0.94023 0.258707 -0.221445
    outer loop
      vertex -4.9305 -22.7324 -5.45059
      vertex -2.50872 -11.6706 -2.81009
      vertex -2.4357 -11.4561 -2.86953
    endloop
  endfacet
  facet normal -0.940229 0.258707 -0.221448
    outer loop
      vertex -4.9305 -22.7324 -5.45059
      vertex -2.4357 -11.4561 -2.86953
      vertex -2.38141 -11.2787 -2.89282
    endloop
  endfacet
  facet normal -0.940229 0.258708 -0.221451
    outer loop
      vertex -4.9305 -22.7324 -5.45059
      vertex -2.38141 -11.2787 -2.89282
      vertex -2.36825 -11.2357 -2.89847
    endloop
  endfacet
  facet normal -0.940231 0.258706 -0.221444
    outer loop
      vertex -2.31752 -11.0498 -2.89669
      vertex -4.9305 -22.7324 -5.45059
      vertex -2.36825 -11.2357 -2.89847
    endloop
  endfacet
  facet normal -0.940229 0.258707 -0.221449
    outer loop
      vertex -2.56001 -11.8065 -2.75108
      vertex -4.9305 -21.0732 -3.51219
      vertex -4.9305 -20.9654 -3.38626
    endloop
  endfacet
  facet normal -0.94023 0.258707 -0.221447
    outer loop
      vertex -2.56001 -11.8065 -2.75108
      vertex -4.9305 -22.7324 -5.45059
      vertex -4.9305 -21.0732 -3.51219
    endloop
  endfacet
  facet normal -0.935508 0.258807 -0.240507
    outer loop
      vertex -4.9305 -20.9654 -3.38626
      vertex -2.61278 -11.9353 -2.68445
      vertex -2.58664 -11.8751 -2.72128
    endloop
  endfacet
  facet normal -0.935509 0.258807 -0.240504
    outer loop
      vertex -4.9305 -20.9654 -3.38626
      vertex -2.78807 -12.3005 -2.39557
      vertex -2.75355 -12.2383 -2.46296
    endloop
  endfacet
  facet normal -0.935509 0.258807 -0.240505
    outer loop
      vertex -3.07423 -12.6916 -1.70337
      vertex -4.9305 -19.0463 -1.32112
      vertex -3.34182 -12.9081 -0.895439
    endloop
  endfacet
  facet normal -0.935509 0.258807 -0.240505
    outer loop
      vertex -3.04052 -12.6587 -1.79909
      vertex -4.9305 -19.0463 -1.32112
      vertex -3.07423 -12.6916 -1.70337
    endloop
  endfacet
  facet normal -0.935509 0.258807 -0.240505
    outer loop
      vertex -2.99971 -12.6189 -1.91498
      vertex -4.9305 -19.0463 -1.32112
      vertex -3.04052 -12.6587 -1.79909
    endloop
  endfacet
  facet normal -0.935509 0.258807 -0.240504
    outer loop
      vertex -2.96032 -12.5686 -2.01414
      vertex -4.9305 -19.0463 -1.32112
      vertex -2.99971 -12.6189 -1.91498
    endloop
  endfacet
  facet normal -0.935508 0.258806 -0.240507
    outer loop
      vertex -2.92039 -12.5177 -2.11466
      vertex -4.9305 -19.0463 -1.32112
      vertex -2.96032 -12.5686 -2.01414
    endloop
  endfacet
  facet normal -0.935509 0.258807 -0.240506
    outer loop
      vertex -2.87555 -12.4484 -2.21447
      vertex -4.9305 -19.0463 -1.32112
      vertex -2.92039 -12.5177 -2.11466
    endloop
  endfacet
  facet normal -0.935508 0.258806 -0.240506
    outer loop
      vertex -2.8378 -12.39 -2.29851
      vertex -4.9305 -19.0463 -1.32112
      vertex -2.87555 -12.4484 -2.21447
    endloop
  endfacet
  facet normal -0.935509 0.258807 -0.240505
    outer loop
      vertex -2.78807 -12.3005 -2.39557
      vertex -4.9305 -20.9654 -3.38626
      vertex -2.8378 -12.39 -2.29851
    endloop
  endfacet
  facet normal -0.935508 0.258807 -0.240507
    outer loop
      vertex -4.9305 -20.9654 -3.38626
      vertex -2.75355 -12.2383 -2.46296
      vertex -2.69983 -12.1282 -2.55339
    endloop
  endfacet
  facet normal -0.935509 0.258807 -0.240505
    outer loop
      vertex -4.9305 -20.9654 -3.38626
      vertex -2.69983 -12.1282 -2.55339
      vertex -2.66929 -12.0655 -2.6048
    endloop
  endfacet
  facet normal -0.935509 0.258807 -0.240505
    outer loop
      vertex -2.61278 -11.9353 -2.68445
      vertex -4.9305 -20.9654 -3.38626
      vertex -2.66929 -12.0655 -2.6048
    endloop
  endfacet
  facet normal -0.93551 0.258807 -0.2405
    outer loop
      vertex -4.9305 -20.9654 -3.38626
      vertex -2.58664 -11.8751 -2.72128
      vertex -2.56001 -11.8065 -2.75108
    endloop
  endfacet
  facet normal -0.935509 0.258807 -0.240505
    outer loop
      vertex -2.8378 -12.39 -2.29851
      vertex -4.9305 -20.9654 -3.38626
      vertex -4.9305 -19.0463 -1.32112
    endloop
  endfacet
  facet normal -0.935509 0.258807 -0.240505
    outer loop
      vertex -2.59108e-05 4.54292e-07 -0.00391934
      vertex -0.00264445 -0.00648106 -0.000708577
      vertex -0.000966908 4.5434e-07 -0.000259082
    endloop
  endfacet
  facet normal -0.935509 0.258807 -0.240505
    outer loop
      vertex 0.304826 -0.689895 -1.93211
      vertex -0.00264445 -0.00648106 -0.000708577
      vertex -2.59108e-05 4.54292e-07 -0.00391934
    endloop
  endfacet
  facet normal -0.935509 0.258807 -0.240505
    outer loop
      vertex 0.304826 -0.689895 -1.93211
      vertex -1.99476 -9.56988 -2.54297
      vertex -0.00264445 -0.00648106 -0.000708577
    endloop
  endfacet
  facet normal -0.935509 0.258807 -0.240505
    outer loop
      vertex 0.312879 -0.706491 -1.9813
      vertex -1.99476 -9.56988 -2.54297
      vertex 0.304826 -0.689895 -1.93211
    endloop
  endfacet
  facet normal -0.935509 0.258807 -0.240504
    outer loop
      vertex -1.99476 -9.56988 -2.54297
      vertex 0.312879 -0.706491 -1.9813
      vertex -2.05251 -9.84566 -2.6151
    endloop
  endfacet
  facet normal -0.930427 0.258807 -0.259471
    outer loop
      vertex -3.34182 -12.9081 -0.895439
      vertex -4.9305 -17.7218 -1.95328e-07
      vertex -3.65828 -13.148 -1.59638e-07
    endloop
  endfacet
  facet normal -0.930427 0.258807 -0.25947
    outer loop
      vertex -4.9305 -17.7218 -1.95328e-07
      vertex -3.34182 -12.9081 -0.895439
      vertex -4.9305 -19.0463 -1.32112
    endloop
  endfacet
  facet normal -0.930427 0.258807 -0.25947
    outer loop
      vertex -0.000966908 4.5434e-07 -0.000259082
      vertex -0.00210087 -0.00381664 -1.74368e-07
      vertex -0.00103911 4.54343e-07 -1.74379e-07
    endloop
  endfacet
  facet normal -0.930427 0.258807 -0.259471
    outer loop
      vertex -0.00210087 -0.00381664 -1.74368e-07
      vertex -0.000966908 4.5434e-07 -0.000259082
      vertex -0.00264445 -0.00648106 -0.000708577
    endloop
  endfacet
  facet normal 0.41882 0.898162 -0.13377
    outer loop
      vertex 6.77542 -5.96445 -12.7
      vertex 1.48242 -3.34992 -11.7173
      vertex 7.7695 -6.28163 -11.7173
    endloop
  endfacet
  facet normal 0.41882 0.898162 -0.13377
    outer loop
      vertex 6.77542 -5.96445 -12.7
      vertex 7.7695 -6.28163 -11.7173
      vertex 7.7695 -6.42799 -12.7
    endloop
  endfacet
  facet normal 0.41882 0.898162 -0.133771
    outer loop
      vertex 1.48242 -3.34992 -11.7173
      vertex 6.77542 -5.96445 -12.7
      vertex 1.5063 -3.3971 -11.9593
    endloop
  endfacet
  facet normal 0.41882 0.898162 -0.13377
    outer loop
      vertex 1.5063 -3.3971 -11.9593
      vertex 6.77542 -5.96445 -12.7
      vertex 1.56592 -3.53522 -12.7
    endloop
  endfacet
  facet normal 0.417629 0.895609 -0.153201
    outer loop
      vertex 7.7695 -5.94442 -9.74599
      vertex 1.31801 -2.97207 -9.95658
      vertex 1.29451 -2.92509 -9.74599
    endloop
  endfacet
  facet normal 0.417629 0.895609 -0.153201
    outer loop
      vertex 1.48242 -3.34992 -11.7173
      vertex 7.7695 -5.94442 -9.74599
      vertex 7.7695 -6.27095 -11.6548
    endloop
  endfacet
  facet normal 0.417629 0.895609 -0.153202
    outer loop
      vertex 1.48242 -3.34992 -11.7173
      vertex 7.7695 -6.27095 -11.6548
      vertex 7.7695 -6.28163 -11.7173
    endloop
  endfacet
  facet normal 0.417629 0.895609 -0.153201
    outer loop
      vertex 7.7695 -5.94442 -9.74599
      vertex 1.48242 -3.34992 -11.7173
      vertex 1.31801 -2.97207 -9.95658
    endloop
  endfacet
  facet normal 0.416278 0.89271 -0.172573
    outer loop
      vertex 7.7695 -5.56457 -7.78106
      vertex 1.10438 -2.49052 -7.95665
      vertex 1.08251 -2.44638 -7.78106
    endloop
  endfacet
  facet normal 0.416278 0.89271 -0.172574
    outer loop
      vertex 1.29451 -2.92509 -9.74599
      vertex 7.7695 -5.56457 -7.78106
      vertex 7.7695 -5.94442 -9.74599
    endloop
  endfacet
  facet normal 0.416278 0.89271 -0.172574
    outer loop
      vertex 7.7695 -5.56457 -7.78106
      vertex 1.29451 -2.92509 -9.74599
      vertex 1.10438 -2.49052 -7.95665
    endloop
  endfacet
  facet normal 0.414765 0.889467 -0.191881
    outer loop
      vertex 7.7695 -5.14223 -5.82327
      vertex 0.865549 -1.95242 -5.96029
      vertex 0.846699 -1.91407 -5.82327
    endloop
  endfacet
  facet normal 0.414765 0.889467 -0.19188
    outer loop
      vertex 1.08251 -2.44638 -7.78106
      vertex 7.7695 -5.14223 -5.82327
      vertex 7.7695 -5.56457 -7.78106
    endloop
  endfacet
  facet normal 0.414765 0.889467 -0.19188
    outer loop
      vertex 7.7695 -5.14223 -5.82327
      vertex 1.08251 -2.44638 -7.78106
      vertex 0.865549 -1.95242 -5.96029
    endloop
  endfacet
  facet normal 0.413093 0.885881 -0.211112
    outer loop
      vertex 7.7695 -4.67755 -3.87337
      vertex 0.60166 -1.35775 -3.96825
      vertex 0.587367 -1.32847 -3.87337
    endloop
  endfacet
  facet normal 0.413093 0.885881 -0.211112
    outer loop
      vertex 0.846699 -1.91407 -5.82327
      vertex 7.7695 -4.67755 -3.87337
      vertex 7.7695 -5.14223 -5.82327
    endloop
  endfacet
  facet normal 0.413093 0.885881 -0.211111
    outer loop
      vertex 7.7695 -4.67755 -3.87337
      vertex 0.846699 -1.91407 -5.82327
      vertex 0.60166 -1.35775 -3.96825
    endloop
  endfacet
  facet normal 0.411262 0.881954 -0.230261
    outer loop
      vertex 7.7695 -4.17073 -1.93211
      vertex 0.312879 -0.706491 -1.9813
      vertex 0.304826 -0.689895 -1.93211
    endloop
  endfacet
  facet normal 0.411262 0.881954 -0.230262
    outer loop
      vertex 0.587367 -1.32847 -3.87337
      vertex 7.7695 -4.17073 -1.93211
      vertex 7.7695 -4.67755 -3.87337
    endloop
  endfacet
  facet normal 0.411262 0.881954 -0.230262
    outer loop
      vertex 7.7695 -4.17073 -1.93211
      vertex 0.587367 -1.32847 -3.87337
      vertex 0.312879 -0.706491 -1.9813
    endloop
  endfacet
  facet normal 0.409272 0.877687 -0.249324
    outer loop
      vertex 0.0133084 -0.00517519 -0.000250285
      vertex -2.59108e-05 4.54292e-07 -0.00391934
      vertex 0.00220924 4.54219e-07 -0.000250285
    endloop
  endfacet
  facet normal 0.409272 0.877687 -0.249324
    outer loop
      vertex 0.304826 -0.689895 -1.93211
      vertex 0.0133084 -0.00517519 -0.000250285
      vertex 1.99476 -0.999074 -0.246425
    endloop
  endfacet
  facet normal 0.409272 0.877687 -0.249324
    outer loop
      vertex 7.7695 -4.17073 -1.93211
      vertex 5.98122 -2.96128 -0.610043
      vertex 7.7695 -3.82469 -0.713963
    endloop
  endfacet
  facet normal 0.409272 0.877687 -0.249324
    outer loop
      vertex 7.7695 -4.17073 -1.93211
      vertex 3.98876 -1.98679 -0.450267
      vertex 5.98122 -2.96128 -0.610043
    endloop
  endfacet
  facet normal 0.409272 0.877687 -0.249324
    outer loop
      vertex 0.304826 -0.689895 -1.93211
      vertex 3.98876 -1.98679 -0.450267
      vertex 7.7695 -4.17073 -1.93211
    endloop
  endfacet
  facet normal 0.409272 0.877687 -0.249324
    outer loop
      vertex 3.98876 -1.98679 -0.450267
      vertex 0.304826 -0.689895 -1.93211
      vertex 1.99476 -0.999074 -0.246425
    endloop
  endfacet
  facet normal 0.409272 0.877687 -0.249324
    outer loop
      vertex 0.0133084 -0.00517519 -0.000250285
      vertex 0.304826 -0.689895 -1.93211
      vertex -2.59108e-05 4.54292e-07 -0.00391934
    endloop
  endfacet
  facet normal 0.407125 0.873082 -0.268287
    outer loop
      vertex 0.00220924 4.54219e-07 -0.000250285
      vertex 0.0113089 -0.00416592 -1.74413e-07
      vertex 0.0133084 -0.00517519 -0.000250285
    endloop
  endfacet
  facet normal 0.407124 0.873081 -0.268289
    outer loop
      vertex 0.0113089 -0.00416592 -1.74413e-07
      vertex 0.00220924 4.54219e-07 -0.000250285
      vertex 0.00237406 4.54214e-07 -1.7439e-07
    endloop
  endfacet
  facet normal -0.0686679 -0.258208 0.963646
    outer loop
      vertex 5.98122 -10.8332 -2.71932
      vertex 7.7695 -3.82469 -0.713963
      vertex 5.98122 -2.96128 -0.610043
    endloop
  endfacet
  facet normal -0.0686679 -0.258208 0.963646
    outer loop
      vertex 7.7695 -3.82469 -0.713963
      vertex 5.98122 -10.8332 -2.71932
      vertex 7.7695 -10.8651 -2.60043
    endloop
  endfacet
  facet normal -0.0682921 -0.155829 0.98542
    outer loop
      vertex 7.7695 -11.0838 -2.63502
      vertex 7.7695 -10.8873 -2.60394
      vertex 5.97985 -11.052 -2.75401
    endloop
  endfacet
  facet normal -0.0682918 -0.155831 0.98542
    outer loop
      vertex 5.98122 -10.8332 -2.71932
      vertex 7.7695 -10.8873 -2.60394
      vertex 7.7695 -10.8651 -2.60043
    endloop
  endfacet
  facet normal -0.0682918 -0.155832 0.98542
    outer loop
      vertex 7.7695 -10.8873 -2.60394
      vertex 5.98122 -10.8332 -2.71932
      vertex 5.97985 -11.052 -2.75401
    endloop
  endfacet
  facet normal -0.0666287 -0.0168721 0.997635
    outer loop
      vertex 7.7695 -11.3053 -2.63877
      vertex 7.7695 -11.1061 -2.6354
      vertex 5.9767 -11.2734 -2.75796
    endloop
  endfacet
  facet normal -0.0666286 -0.0168712 0.997635
    outer loop
      vertex 5.97985 -11.052 -2.75401
      vertex 7.7695 -11.1061 -2.6354
      vertex 7.7695 -11.0838 -2.63502
    endloop
  endfacet
  facet normal -0.0666287 -0.0168722 0.997635
    outer loop
      vertex 7.7695 -11.1061 -2.6354
      vertex 5.97985 -11.052 -2.75401
      vertex 5.9767 -11.2734 -2.75796
    endloop
  endfacet
  facet normal -0.0636685 0.122419 0.990434
    outer loop
      vertex 7.7695 -11.5252 -2.61159
      vertex 7.7695 -11.3269 -2.6361
      vertex 5.97182 -11.4932 -2.73111
    endloop
  endfacet
  facet normal -0.0636685 0.122421 0.990434
    outer loop
      vertex 5.9767 -11.2734 -2.75796
      vertex 7.7695 -11.3269 -2.6361
      vertex 7.7695 -11.3053 -2.63877
    endloop
  endfacet
  facet normal -0.0636685 0.12242 0.990434
    outer loop
      vertex 7.7695 -11.3269 -2.6361
      vertex 5.9767 -11.2734 -2.75796
      vertex 5.97182 -11.4932 -2.73111
    endloop
  endfacet
  facet normal -0.0594694 0.259329 0.963956
    outer loop
      vertex 7.7695 -11.7392 -2.55402
      vertex 7.7695 -11.5455 -2.60612
      vertex 5.9653 -11.7071 -2.67398
    endloop
  endfacet
  facet normal -0.059469 0.25933 0.963956
    outer loop
      vertex 5.97182 -11.4932 -2.73111
      vertex 7.7695 -11.5455 -2.60612
      vertex 7.7695 -11.5252 -2.61159
    endloop
  endfacet
  facet normal -0.0594692 0.259326 0.963957
    outer loop
      vertex 7.7695 -11.5455 -2.60612
      vertex 5.97182 -11.4932 -2.73111
      vertex 5.9653 -11.7071 -2.67398
    endloop
  endfacet
  facet normal -0.054112 0.391188 0.918719
    outer loop
      vertex 7.7695 -11.9431 -2.46718
      vertex 7.7695 -11.7577 -2.54615
      vertex 5.95727 -11.9109 -2.58767
    endloop
  endfacet
  facet normal -0.0541127 0.391188 0.918719
    outer loop
      vertex 5.9653 -11.7071 -2.67398
      vertex 7.7695 -11.7577 -2.54615
      vertex 7.7695 -11.7392 -2.55402
    endloop
  endfacet
  facet normal -0.0541124 0.391193 0.918716
    outer loop
      vertex 7.7695 -11.7577 -2.54615
      vertex 5.9653 -11.7071 -2.67398
      vertex 5.95727 -11.9109 -2.58767
    endloop
  endfacet
  facet normal -0.0477019 0.515442 0.855595
    outer loop
      vertex 7.7695 -12.1331 -2.35275
      vertex 7.7695 -11.9594 -2.45741
      vertex 5.94789 -12.1006 -2.47386
    endloop
  endfacet
  facet normal -0.0477012 0.515451 0.85559
    outer loop
      vertex 5.95727 -11.9109 -2.58767
      vertex 7.7695 -11.9594 -2.45741
      vertex 7.7695 -11.9431 -2.46718
    endloop
  endfacet
  facet normal -0.0477019 0.515441 0.855596
    outer loop
      vertex 7.7695 -11.9594 -2.45741
      vertex 5.95727 -11.9109 -2.58767
      vertex 5.94789 -12.1006 -2.47386
    endloop
  endfacet
  facet normal -0.0403634 0.629663 0.775819
    outer loop
      vertex 7.7695 -12.3053 -2.21297
      vertex 7.7695 -12.1467 -2.34169
      vertex 5.93734 -12.2727 -2.33478
    endloop
  endfacet
  facet normal -0.0403633 0.629662 0.77582
    outer loop
      vertex 5.94789 -12.1006 -2.47386
      vertex 7.7695 -12.1467 -2.34169
      vertex 7.7695 -12.1331 -2.35275
    endloop
  endfacet
  facet normal -0.0403633 0.629661 0.77582
    outer loop
      vertex 7.7695 -12.1467 -2.34169
      vertex 5.94789 -12.1006 -2.47386
      vertex 5.93734 -12.2727 -2.33478
    endloop
  endfacet
  facet normal -0.0322389 0.731629 0.68094
    outer loop
      vertex 7.7695 -12.4565 -2.05056
      vertex 7.7695 -12.3162 -2.20125
      vertex 5.92583 -12.4236 -2.17313
    endloop
  endfacet
  facet normal -0.03224 0.731615 0.680955
    outer loop
      vertex 5.93734 -12.2727 -2.33478
      vertex 7.7695 -12.3162 -2.20125
      vertex 7.7695 -12.3053 -2.21297
    endloop
  endfacet
  facet normal -0.0322388 0.731627 0.680942
    outer loop
      vertex 7.7695 -12.3162 -2.20125
      vertex 5.93734 -12.2727 -2.33478
      vertex 5.92583 -12.4236 -2.17313
    endloop
  endfacet
  facet normal -0.0234871 0.819351 0.572811
    outer loop
      vertex 7.7695 -12.5836 -1.86867
      vertex 7.7695 -12.4647 -2.03882
      vertex 5.91358 -12.5506 -1.99206
    endloop
  endfacet
  facet normal -0.0234873 0.81935 0.572813
    outer loop
      vertex 5.92583 -12.4236 -2.17313
      vertex 7.7695 -12.4647 -2.03882
      vertex 7.7695 -12.4565 -2.05056
    endloop
  endfacet
  facet normal -0.0234871 0.819351 0.572811
    outer loop
      vertex 7.7695 -12.4647 -2.03882
      vertex 5.92583 -12.4236 -2.17313
      vertex 5.91358 -12.5506 -1.99206
    endloop
  endfacet
  facet normal -0.0142778 0.891127 0.453529
    outer loop
      vertex 7.7695 -12.6843 -1.67085
      vertex 7.7695 -12.5893 -1.85751
      vertex 5.90082 -12.651 -1.79509
    endloop
  endfacet
  facet normal -0.014274 0.891153 0.453477
    outer loop
      vertex 5.91358 -12.5506 -1.99206
      vertex 7.7695 -12.5893 -1.85751
      vertex 7.7695 -12.5836 -1.86867
    endloop
  endfacet
  facet normal -0.014278 0.891129 0.453526
    outer loop
      vertex 7.7695 -12.5893 -1.85751
      vertex 5.91358 -12.5506 -1.99206
      vertex 5.90082 -12.651 -1.79509
    endloop
  endfacet
  facet normal -0.00479023 0.94556 0.325413
    outer loop
      vertex 7.7695 -12.7565 -1.46094
      vertex 7.7695 -12.6878 -1.66078
      vertex 5.88782 -12.723 -1.58604
    endloop
  endfacet
  facet normal -0.00479292 0.945547 0.325449
    outer loop
      vertex 5.90082 -12.651 -1.79509
      vertex 7.7695 -12.6878 -1.66078
      vertex 7.7695 -12.6843 -1.67085
    endloop
  endfacet
  facet normal -0.00479019 0.945559 0.325414
    outer loop
      vertex 7.7695 -12.6878 -1.66078
      vertex 5.90082 -12.651 -1.79509
      vertex 5.88782 -12.723 -1.58604
    endloop
  endfacet
  facet normal -0.0490677 -0.258507 0.964762
    outer loop
      vertex 3.98876 -10.8079 -2.81387
      vertex 5.98122 -2.96128 -0.610043
      vertex 3.98876 -1.98679 -0.450267
    endloop
  endfacet
  facet normal -0.0490678 -0.258507 0.964762
    outer loop
      vertex 5.98122 -2.96128 -0.610043
      vertex 3.98876 -10.8079 -2.81387
      vertex 5.98122 -10.8332 -2.71932
    endloop
  endfacet
  facet normal -0.0487992 -0.156129 0.98653
    outer loop
      vertex 5.97985 -11.052 -2.75401
      vertex 5.98122 -10.8332 -2.71932
      vertex 3.98785 -11.0266 -2.84854
    endloop
  endfacet
  facet normal -0.048799 -0.156131 0.98653
    outer loop
      vertex 5.98122 -10.8332 -2.71932
      vertex 3.98876 -10.8079 -2.81387
      vertex 3.98785 -11.0266 -2.84854
    endloop
  endfacet
  facet normal -0.0476101 -0.0171625 0.998719
    outer loop
      vertex 5.9767 -11.2734 -2.75796
      vertex 5.97985 -11.052 -2.75401
      vertex 3.98575 -11.2481 -2.85244
    endloop
  endfacet
  facet normal -0.0476105 -0.0171584 0.998719
    outer loop
      vertex 5.97985 -11.052 -2.75401
      vertex 3.98785 -11.0266 -2.84854
      vertex 3.98575 -11.2481 -2.85244
    endloop
  endfacet
  facet normal -0.0454953 0.122142 0.991469
    outer loop
      vertex 5.97182 -11.4932 -2.73111
      vertex 5.9767 -11.2734 -2.75796
      vertex 3.98249 -11.4679 -2.82551
    endloop
  endfacet
  facet normal -0.0454949 0.122138 0.99147
    outer loop
      vertex 5.9767 -11.2734 -2.75796
      vertex 3.98575 -11.2481 -2.85244
      vertex 3.98249 -11.4679 -2.82551
    endloop
  endfacet
  facet normal -0.0424945 0.259067 0.964924
    outer loop
      vertex 5.9653 -11.7071 -2.67398
      vertex 5.97182 -11.4932 -2.73111
      vertex 3.97814 -11.6818 -2.76827
    endloop
  endfacet
  facet normal -0.0424946 0.259068 0.964924
    outer loop
      vertex 5.97182 -11.4932 -2.73111
      vertex 3.98249 -11.4679 -2.82551
      vertex 3.97814 -11.6818 -2.76827
    endloop
  endfacet
  facet normal -0.0386666 0.390957 0.919596
    outer loop
      vertex 5.95727 -11.9109 -2.58767
      vertex 5.9653 -11.7071 -2.67398
      vertex 3.97279 -11.8856 -2.68183
    endloop
  endfacet
  facet normal -0.0386666 0.390957 0.919596
    outer loop
      vertex 5.9653 -11.7071 -2.67398
      vertex 3.97814 -11.6818 -2.76827
      vertex 3.97279 -11.8856 -2.68183
    endloop
  endfacet
  facet normal -0.0340863 0.515234 0.856372
    outer loop
      vertex 5.94789 -12.1006 -2.47386
      vertex 5.95727 -11.9109 -2.58767
      vertex 3.96653 -12.0754 -2.56788
    endloop
  endfacet
  facet normal -0.0340863 0.515233 0.856372
    outer loop
      vertex 5.95727 -11.9109 -2.58767
      vertex 3.97279 -11.8856 -2.68183
      vertex 3.96653 -12.0754 -2.56788
    endloop
  endfacet
  facet normal -0.0288421 0.629486 0.776477
    outer loop
      vertex 5.93734 -12.2727 -2.33478
      vertex 5.94789 -12.1006 -2.47386
      vertex 3.9595 -12.2475 -2.42864
    endloop
  endfacet
  facet normal -0.0288423 0.629488 0.776475
    outer loop
      vertex 5.94789 -12.1006 -2.47386
      vertex 3.96653 -12.0754 -2.56788
      vertex 3.9595 -12.2475 -2.42864
    endloop
  endfacet
  facet normal -0.0230368 0.731487 0.681466
    outer loop
      vertex 5.92583 -12.4236 -2.17313
      vertex 5.93734 -12.2727 -2.33478
      vertex 3.95182 -12.3985 -2.26681
    endloop
  endfacet
  facet normal -0.0230367 0.731485 0.681468
    outer loop
      vertex 5.93734 -12.2727 -2.33478
      vertex 3.9595 -12.2475 -2.42864
      vertex 3.95182 -12.3985 -2.26681
    endloop
  endfacet
  facet normal -0.0167829 0.819249 0.573193
    outer loop
      vertex 5.91358 -12.5506 -1.99206
      vertex 5.92583 -12.4236 -2.17313
      vertex 3.94365 -12.5255 -2.08554
    endloop
  endfacet
  facet normal -0.016783 0.81925 0.573191
    outer loop
      vertex 5.92583 -12.4236 -2.17313
      vertex 3.95182 -12.3985 -2.26681
      vertex 3.94365 -12.5255 -2.08554
    endloop
  endfacet
  facet normal -0.0102022 0.891067 0.453758
    outer loop
      vertex 5.90082 -12.651 -1.79509
      vertex 5.91358 -12.5506 -1.99206
      vertex 3.93515 -12.626 -1.88836
    endloop
  endfacet
  facet normal -0.0102022 0.891067 0.453757
    outer loop
      vertex 5.91358 -12.5506 -1.99206
      vertex 3.94365 -12.5255 -2.08554
      vertex 3.93515 -12.626 -1.88836
    endloop
  endfacet
  facet normal -0.0034231 0.945539 0.325492
    outer loop
      vertex 5.88782 -12.723 -1.58604
      vertex 5.90082 -12.651 -1.79509
      vertex 3.92647 -12.6981 -1.67912
    endloop
  endfacet
  facet normal -0.00342302 0.945538 0.325493
    outer loop
      vertex 5.90082 -12.651 -1.79509
      vertex 3.93515 -12.626 -1.88836
      vertex 3.92647 -12.6981 -1.67912
    endloop
  endfacet
  facet normal -0.0294484 -0.258707 0.965507
    outer loop
      vertex 1.99476 -10.7927 -2.87062
      vertex 3.98876 -1.98679 -0.450267
      vertex 1.99476 -0.999074 -0.246425
    endloop
  endfacet
  facet normal -0.0294483 -0.258707 0.965507
    outer loop
      vertex 3.98876 -1.98679 -0.450267
      vertex 1.99476 -10.7927 -2.87062
      vertex 3.98876 -10.8079 -2.81387
    endloop
  endfacet
  facet normal -0.0292867 -0.156329 0.987271
    outer loop
      vertex 3.98785 -11.0266 -2.84854
      vertex 3.98876 -10.8079 -2.81387
      vertex 1.99431 -11.0114 -2.90527
    endloop
  endfacet
  facet normal -0.029287 -0.156326 0.987271
    outer loop
      vertex 3.98876 -10.8079 -2.81387
      vertex 1.99476 -10.7927 -2.87062
      vertex 1.99431 -11.0114 -2.90527
    endloop
  endfacet
  facet normal -0.0285735 -0.017352 0.999441
    outer loop
      vertex 3.98575 -11.2481 -2.85244
      vertex 3.98785 -11.0266 -2.84854
      vertex 1.99326 -11.2329 -2.90914
    endloop
  endfacet
  facet normal -0.0285733 -0.0173537 0.999441
    outer loop
      vertex 3.98785 -11.0266 -2.84854
      vertex 1.99431 -11.0114 -2.90527
      vertex 1.99326 -11.2329 -2.90914
    endloop
  endfacet
  facet normal -0.0273038 0.121953 0.99216
    outer loop
      vertex 3.98249 -11.4679 -2.82551
      vertex 3.98575 -11.2481 -2.85244
      vertex 1.99163 -11.4527 -2.88217
    endloop
  endfacet
  facet normal -0.0273041 0.121956 0.99216
    outer loop
      vertex 3.98575 -11.2481 -2.85244
      vertex 1.99326 -11.2329 -2.90914
      vertex 1.99163 -11.4527 -2.88217
    endloop
  endfacet
  facet normal -0.025503 0.258895 0.965569
    outer loop
      vertex 3.97814 -11.6818 -2.76827
      vertex 3.98249 -11.4679 -2.82551
      vertex 1.98945 -11.6666 -2.82486
    endloop
  endfacet
  facet normal -0.0255029 0.258894 0.965569
    outer loop
      vertex 3.98249 -11.4679 -2.82551
      vertex 1.99163 -11.4527 -2.88217
      vertex 1.98945 -11.6666 -2.82486
    endloop
  endfacet
  facet normal -0.0232059 0.3908 0.920183
    outer loop
      vertex 3.97279 -11.8856 -2.68183
      vertex 3.97814 -11.6818 -2.76827
      vertex 1.98678 -11.8705 -2.73835
    endloop
  endfacet
  facet normal -0.0232057 0.390799 0.920184
    outer loop
      vertex 3.97814 -11.6818 -2.76827
      vertex 1.98945 -11.6666 -2.82486
      vertex 1.98678 -11.8705 -2.73835
    endloop
  endfacet
  facet normal -0.020457 0.515095 0.856889
    outer loop
      vertex 3.96653 -12.0754 -2.56788
      vertex 3.97279 -11.8856 -2.68183
      vertex 1.98365 -12.0603 -2.62431
    endloop
  endfacet
  facet normal -0.020457 0.515095 0.856889
    outer loop
      vertex 3.97279 -11.8856 -2.68183
      vertex 1.98678 -11.8705 -2.73835
      vertex 1.98365 -12.0603 -2.62431
    endloop
  endfacet
  facet normal -0.0173097 0.629371 0.776913
    outer loop
      vertex 3.9595 -12.2475 -2.42864
      vertex 3.96653 -12.0754 -2.56788
      vertex 1.98013 -12.2324 -2.48497
    endloop
  endfacet
  facet normal -0.0173096 0.62937 0.776913
    outer loop
      vertex 3.96653 -12.0754 -2.56788
      vertex 1.98365 -12.0603 -2.62431
      vertex 1.98013 -12.2324 -2.48497
    endloop
  endfacet
  facet normal -0.0138257 0.731392 0.681818
    outer loop
      vertex 3.95182 -12.3985 -2.26681
      vertex 3.9595 -12.2475 -2.42864
      vertex 1.97629 -12.3835 -2.32302
    endloop
  endfacet
  facet normal -0.0138257 0.731392 0.681817
    outer loop
      vertex 3.9595 -12.2475 -2.42864
      vertex 1.98013 -12.2324 -2.48497
      vertex 1.97629 -12.3835 -2.32302
    endloop
  endfacet
  facet normal -0.0100722 0.819181 0.573446
    outer loop
      vertex 3.94365 -12.5255 -2.08554
      vertex 3.95182 -12.3985 -2.26681
      vertex 1.97221 -12.5105 -2.14164
    endloop
  endfacet
  facet normal -0.0100723 0.819182 0.573445
    outer loop
      vertex 3.95182 -12.3985 -2.26681
      vertex 1.97629 -12.3835 -2.32302
      vertex 1.97221 -12.5105 -2.14164
    endloop
  endfacet
  facet normal -0.00612303 0.891025 0.453912
    outer loop
      vertex 3.93515 -12.626 -1.88836
      vertex 3.94365 -12.5255 -2.08554
      vertex 1.96795 -12.611 -1.94434
    endloop
  endfacet
  facet normal -0.00612283 0.891024 0.453914
    outer loop
      vertex 3.94365 -12.5255 -2.08554
      vertex 1.97221 -12.5105 -2.14164
      vertex 1.96795 -12.611 -1.94434
    endloop
  endfacet
  facet normal -0.00205426 0.945524 0.325545
    outer loop
      vertex 3.92647 -12.6981 -1.67912
      vertex 3.93515 -12.626 -1.88836
      vertex 1.96361 -12.6831 -1.73497
    endloop
  endfacet
  facet normal -0.0020545 0.945525 0.325543
    outer loop
      vertex 3.93515 -12.626 -1.88836
      vertex 1.96795 -12.611 -1.94434
      vertex 1.96361 -12.6831 -1.73497
    endloop
  endfacet
  facet normal -0.00981708 -0.258807 0.965879
    outer loop
      vertex -3.87191e-23 -0.00373695 -1.74375e-07
      vertex 1.99476 -0.999074 -0.246425
      vertex 0.0133084 -0.00517519 -0.000250285
    endloop
  endfacet
  facet normal -0.00981709 -0.258807 0.965879
    outer loop
      vertex -3.87191e-23 -0.00373695 -1.74375e-07
      vertex 0.0133084 -0.00517519 -0.000250285
      vertex 0.0113089 -0.00416592 -1.74413e-07
    endloop
  endfacet
  facet normal -0.00981709 -0.258807 0.965879
    outer loop
      vertex 1.99476 -0.999074 -0.246425
      vertex -3.87191e-23 -0.00373695 -1.74375e-07
      vertex -6.41605e-16 -10.7876 -2.88953
    endloop
  endfacet
  facet normal -0.00981709 -0.258807 0.965879
    outer loop
      vertex 1.99476 -0.999074 -0.246425
      vertex -6.41605e-16 -10.7876 -2.88953
      vertex 1.99476 -10.7927 -2.87062
    endloop
  endfacet
  facet normal -0.00976356 -0.156425 0.987642
    outer loop
      vertex 1.99431 -11.0114 -2.90527
      vertex 1.99476 -10.7927 -2.87062
      vertex -6.49298e-16 -11.0064 -2.92418
    endloop
  endfacet
  facet normal -0.0097633 -0.156428 0.987641
    outer loop
      vertex 1.99476 -10.7927 -2.87062
      vertex -6.41605e-16 -10.7876 -2.88953
      vertex -6.49298e-16 -11.0064 -2.92418
    endloop
  endfacet
  facet normal -0.00952571 -0.0174505 0.999802
    outer loop
      vertex 1.99326 -11.2329 -2.90914
      vertex 1.99431 -11.0114 -2.90527
      vertex -6.50156e-16 -11.2278 -2.92804
    endloop
  endfacet
  facet normal -0.00952573 -0.0174503 0.999802
    outer loop
      vertex 1.99431 -11.0114 -2.90527
      vertex -6.49298e-16 -11.0064 -2.92418
      vertex -6.50156e-16 -11.2278 -2.92804
    endloop
  endfacet
  facet normal -0.00910287 0.121864 0.992505
    outer loop
      vertex 1.99163 -11.4527 -2.88217
      vertex 1.99326 -11.2329 -2.90914
      vertex -6.44163e-16 -11.4476 -2.90105
    endloop
  endfacet
  facet normal -0.00910252 0.12186 0.992506
    outer loop
      vertex 1.99326 -11.2329 -2.90914
      vertex -6.50156e-16 -11.2278 -2.92804
      vertex -6.44163e-16 -11.4476 -2.90105
    endloop
  endfacet
  facet normal -0.00850215 0.258808 0.965891
    outer loop
      vertex 1.98945 -11.6666 -2.82486
      vertex 1.99163 -11.4527 -2.88217
      vertex -6.31435e-16 -11.6616 -2.84373
    endloop
  endfacet
  facet normal -0.00850252 0.258811 0.965891
    outer loop
      vertex 1.99163 -11.4527 -2.88217
      vertex -6.44163e-16 -11.4476 -2.90105
      vertex -6.31435e-16 -11.6616 -2.84373
    endloop
  endfacet
  facet normal -0.00773652 0.39072 0.920477
    outer loop
      vertex 1.98678 -11.8705 -2.73835
      vertex 1.98945 -11.6666 -2.82486
      vertex -6.1222e-16 -11.8654 -2.75719
    endloop
  endfacet
  facet normal -0.00773629 0.390718 0.920478
    outer loop
      vertex 1.98945 -11.6666 -2.82486
      vertex -6.31435e-16 -11.6616 -2.84373
      vertex -6.1222e-16 -11.8654 -2.75719
    endloop
  endfacet
  facet normal -0.00681985 0.515025 0.857148
    outer loop
      vertex 1.98365 -12.0603 -2.62431
      vertex 1.98678 -11.8705 -2.73835
      vertex -5.86891e-16 -12.0553 -2.64312
    endloop
  endfacet
  facet normal -0.00682004 0.515027 0.857147
    outer loop
      vertex 1.98678 -11.8705 -2.73835
      vertex -6.1222e-16 -11.8654 -2.75719
      vertex -5.86891e-16 -12.0553 -2.64312
    endloop
  endfacet
  facet normal -0.00577073 0.629311 0.777132
    outer loop
      vertex 1.98013 -12.2324 -2.48497
      vertex 1.98365 -12.0603 -2.62431
      vertex -5.55943e-16 -12.2274 -2.50374
    endloop
  endfacet
  facet normal -0.00577067 0.629311 0.777132
    outer loop
      vertex 1.98365 -12.0603 -2.62431
      vertex -5.86891e-16 -12.0553 -2.64312
      vertex -5.55943e-16 -12.2274 -2.50374
    endloop
  endfacet
  facet normal -0.00460927 0.731345 0.681992
    outer loop
      vertex 1.97629 -12.3835 -2.32302
      vertex 1.98013 -12.2324 -2.48497
      vertex -5.19977e-16 -12.3784 -2.34177
    endloop
  endfacet
  facet normal -0.00460921 0.731345 0.681992
    outer loop
      vertex 1.98013 -12.2324 -2.48497
      vertex -5.55943e-16 -12.2274 -2.50374
      vertex -5.19977e-16 -12.3784 -2.34177
    endloop
  endfacet
  facet normal -0.00335768 0.819148 0.573572
    outer loop
      vertex 1.97221 -12.5105 -2.14164
      vertex 1.97629 -12.3835 -2.32302
      vertex -4.79692e-16 -12.5055 -2.16034
    endloop
  endfacet
  facet normal -0.00335792 0.81915 0.57357
    outer loop
      vertex 1.97629 -12.3835 -2.32302
      vertex -5.19977e-16 -12.3784 -2.34177
      vertex -4.79692e-16 -12.5055 -2.16034
    endloop
  endfacet
  facet normal -0.00204116 0.891004 0.453992
    outer loop
      vertex 1.96795 -12.611 -1.94434
      vertex 1.97221 -12.5105 -2.14164
      vertex -4.35875e-16 -12.606 -1.96301
    endloop
  endfacet
  facet normal -0.0020411 0.891003 0.453992
    outer loop
      vertex 1.97221 -12.5105 -2.14164
      vertex -4.79692e-16 -12.5055 -2.16034
      vertex -4.35875e-16 -12.606 -1.96301
    endloop
  endfacet
  facet normal -0.000684886 0.945518 0.325568
    outer loop
      vertex 1.96361 -12.6831 -1.73497
      vertex 1.96795 -12.611 -1.94434
      vertex -3.89376e-16 -12.6781 -1.75359
    endloop
  endfacet
  facet normal -0.000684736 0.945518 0.32557
    outer loop
      vertex 1.96795 -12.611 -1.94434
      vertex -4.35875e-16 -12.606 -1.96301
      vertex -3.89376e-16 -12.6781 -1.75359
    endloop
  endfacet
  facet normal 8.76862e-10 0.965926 0.258819
    outer loop
      vertex 1.96361 -12.6831 -1.73497
      vertex -2.73917 -13.148 -1.40874e-07
      vertex 7.7695 -13.148 -1.76477e-07
    endloop
  endfacet
  facet normal -2.01344e-08 0.965926 0.258819
    outer loop
      vertex -3.89376e-16 -12.6781 -1.75359
      vertex -2.73917 -13.148 -1.40874e-07
      vertex 1.96361 -12.6831 -1.73497
    endloop
  endfacet
  facet normal 1.23394e-07 0.965926 0.258819
    outer loop
      vertex 5.88782 -12.723 -1.58604
      vertex 7.7695 -13.148 -1.76477e-07
      vertex 7.7695 -12.7565 -1.46094
    endloop
  endfacet
  facet normal -1.31511e-08 0.965926 0.258819
    outer loop
      vertex 3.92647 -12.6981 -1.67912
      vertex 7.7695 -13.148 -1.76477e-07
      vertex 5.88782 -12.723 -1.58604
    endloop
  endfacet
  facet normal 1.27424e-07 0.965926 0.258819
    outer loop
      vertex 1.96361 -12.6831 -1.73497
      vertex 7.7695 -13.148 -1.76477e-07
      vertex 3.92647 -12.6981 -1.67912
    endloop
  endfacet
  facet normal 2.07398e-08 0.965926 0.258819
    outer loop
      vertex -1.96361 -12.6831 -1.73497
      vertex -2.73917 -13.148 -1.40874e-07
      vertex -3.89376e-16 -12.6781 -1.75359
    endloop
  endfacet
  facet normal -3.60073e-08 0.965926 0.258819
    outer loop
      vertex -3.34182 -12.9081 -0.895439
      vertex -2.73917 -13.148 -1.40874e-07
      vertex -1.96361 -12.6831 -1.73497
    endloop
  endfacet
  facet normal -2.27e-07 0.965926 0.258819
    outer loop
      vertex -3.34182 -12.9081 -0.895439
      vertex -1.96361 -12.6831 -1.73497
      vertex -3.07423 -12.6916 -1.70337
    endloop
  endfacet
  facet normal -5.2839e-09 0.965926 0.258819
    outer loop
      vertex -2.73917 -13.148 -1.40874e-07
      vertex -3.34182 -12.9081 -0.895439
      vertex -3.65828 -13.148 -1.59638e-07
    endloop
  endfacet
  facet normal 0.00981709 -0.258807 0.965879
    outer loop
      vertex -0.00264445 -0.00648106 -0.000708577
      vertex -3.87191e-23 -0.00373695 -1.74375e-07
      vertex -0.00210087 -0.00381664 -1.74368e-07
    endloop
  endfacet
  facet normal 0.00981707 -0.258807 0.965879
    outer loop
      vertex -3.87191e-23 -0.00373695 -1.74375e-07
      vertex -0.00264445 -0.00648106 -0.000708577
      vertex -6.41605e-16 -10.7876 -2.88953
    endloop
  endfacet
  facet normal 0.00981709 -0.258807 0.965879
    outer loop
      vertex -1.99476 -9.56988 -2.54297
      vertex -6.41605e-16 -10.7876 -2.88953
      vertex -0.00264445 -0.00648106 -0.000708577
    endloop
  endfacet
  facet normal 0.00981709 -0.258807 0.965879
    outer loop
      vertex -6.41605e-16 -10.7876 -2.88953
      vertex -1.99476 -9.56988 -2.54297
      vertex -1.99476 -10.7927 -2.87062
    endloop
  endfacet
  facet normal 0.00976356 -0.156428 0.987641
    outer loop
      vertex -6.49298e-16 -11.0064 -2.92418
      vertex -6.41605e-16 -10.7876 -2.88953
      vertex -1.99431 -11.0114 -2.90527
    endloop
  endfacet
  facet normal 0.0097633 -0.156425 0.987642
    outer loop
      vertex -1.99431 -11.0114 -2.90527
      vertex -6.41605e-16 -10.7876 -2.88953
      vertex -1.99476 -10.7927 -2.87062
    endloop
  endfacet
  facet normal 0.00952571 -0.0174503 0.999802
    outer loop
      vertex -6.50156e-16 -11.2278 -2.92804
      vertex -6.49298e-16 -11.0064 -2.92418
      vertex -1.99326 -11.2329 -2.90914
    endloop
  endfacet
  facet normal 0.00952573 -0.0174505 0.999802
    outer loop
      vertex -1.99326 -11.2329 -2.90914
      vertex -6.49298e-16 -11.0064 -2.92418
      vertex -1.99431 -11.0114 -2.90527
    endloop
  endfacet
  facet normal 0.00910289 0.12186 0.992506
    outer loop
      vertex -6.44163e-16 -11.4476 -2.90105
      vertex -6.50156e-16 -11.2278 -2.92804
      vertex -1.99163 -11.4527 -2.88217
    endloop
  endfacet
  facet normal 0.0091025 0.121864 0.992505
    outer loop
      vertex -1.99163 -11.4527 -2.88217
      vertex -6.50156e-16 -11.2278 -2.92804
      vertex -1.99326 -11.2329 -2.90914
    endloop
  endfacet
  facet normal 0.00850214 0.258811 0.965891
    outer loop
      vertex -6.31435e-16 -11.6616 -2.84373
      vertex -6.44163e-16 -11.4476 -2.90105
      vertex -1.98945 -11.6666 -2.82486
    endloop
  endfacet
  facet normal 0.00850254 0.258808 0.965891
    outer loop
      vertex -1.98945 -11.6666 -2.82486
      vertex -6.44163e-16 -11.4476 -2.90105
      vertex -1.99163 -11.4527 -2.88217
    endloop
  endfacet
  facet normal 0.00773654 0.390718 0.920478
    outer loop
      vertex -6.1222e-16 -11.8654 -2.75719
      vertex -6.31435e-16 -11.6616 -2.84373
      vertex -1.98678 -11.8705 -2.73835
    endloop
  endfacet
  facet normal 0.00773627 0.39072 0.920477
    outer loop
      vertex -1.98678 -11.8705 -2.73835
      vertex -6.31435e-16 -11.6616 -2.84373
      vertex -1.98945 -11.6666 -2.82486
    endloop
  endfacet
  facet normal 0.00681983 0.515027 0.857147
    outer loop
      vertex -5.86891e-16 -12.0553 -2.64312
      vertex -6.1222e-16 -11.8654 -2.75719
      vertex -1.98365 -12.0603 -2.62431
    endloop
  endfacet
  facet normal 0.00682005 0.515025 0.857148
    outer loop
      vertex -1.98365 -12.0603 -2.62431
      vertex -6.1222e-16 -11.8654 -2.75719
      vertex -1.98678 -11.8705 -2.73835
    endloop
  endfacet
  facet normal 0.00577073 0.629311 0.777132
    outer loop
      vertex -5.55943e-16 -12.2274 -2.50374
      vertex -5.86891e-16 -12.0553 -2.64312
      vertex -1.98013 -12.2324 -2.48497
    endloop
  endfacet
  facet normal 0.00577066 0.629311 0.777132
    outer loop
      vertex -1.98013 -12.2324 -2.48497
      vertex -5.86891e-16 -12.0553 -2.64312
      vertex -1.98365 -12.0603 -2.62431
    endloop
  endfacet
  facet normal 0.00460927 0.731345 0.681992
    outer loop
      vertex -5.19977e-16 -12.3784 -2.34177
      vertex -5.55943e-16 -12.2274 -2.50374
      vertex -1.97629 -12.3835 -2.32302
    endloop
  endfacet
  facet normal 0.00460921 0.731345 0.681992
    outer loop
      vertex -1.97629 -12.3835 -2.32302
      vertex -5.55943e-16 -12.2274 -2.50374
      vertex -1.98013 -12.2324 -2.48497
    endloop
  endfacet
  facet normal 0.00335766 0.81915 0.57357
    outer loop
      vertex -4.79692e-16 -12.5055 -2.16034
      vertex -5.19977e-16 -12.3784 -2.34177
      vertex -1.97221 -12.5105 -2.14164
    endloop
  endfacet
  facet normal 0.00335794 0.819148 0.573572
    outer loop
      vertex -1.97221 -12.5105 -2.14164
      vertex -5.19977e-16 -12.3784 -2.34177
      vertex -1.97629 -12.3835 -2.32302
    endloop
  endfacet
  facet normal 0.00204116 0.891003 0.453992
    outer loop
      vertex -4.35875e-16 -12.606 -1.96301
      vertex -4.79692e-16 -12.5055 -2.16034
      vertex -1.96795 -12.611 -1.94434
    endloop
  endfacet
  facet normal 0.0020411 0.891004 0.453992
    outer loop
      vertex -1.96795 -12.611 -1.94434
      vertex -4.79692e-16 -12.5055 -2.16034
      vertex -1.97221 -12.5105 -2.14164
    endloop
  endfacet
  facet normal 0.000684901 0.945518 0.32557
    outer loop
      vertex -3.89376e-16 -12.6781 -1.75359
      vertex -4.35875e-16 -12.606 -1.96301
      vertex -1.96361 -12.6831 -1.73497
    endloop
  endfacet
  facet normal 0.000684722 0.945518 0.325568
    outer loop
      vertex -1.96361 -12.6831 -1.73497
      vertex -4.35875e-16 -12.606 -1.96301
      vertex -1.96795 -12.611 -1.94434
    endloop
  endfacet
  facet normal 0.0294489 -0.258707 0.965507
    outer loop
      vertex -2.05251 -9.84566 -2.6151
      vertex -1.99476 -10.7927 -2.87062
      vertex -1.99476 -9.56988 -2.54297
    endloop
  endfacet
  facet normal 0.0294487 -0.258707 0.965507
    outer loop
      vertex -1.99476 -10.7927 -2.87062
      vertex -2.05251 -9.84566 -2.6151
      vertex -2.2552 -10.7947 -2.8632
    endloop
  endfacet
  facet normal 0.0292866 -0.156326 0.987271
    outer loop
      vertex -2.26225 -10.8241 -2.86765
      vertex -1.99431 -11.0114 -2.90527
      vertex -1.99476 -10.7927 -2.87062
    endloop
  endfacet
  facet normal 0.029287 -0.156326 0.987271
    outer loop
      vertex -1.99431 -11.0114 -2.90527
      vertex -2.26225 -10.8241 -2.86765
      vertex -2.30769 -11.0138 -2.89635
    endloop
  endfacet
  facet normal 0.0292871 -0.15633 0.987271
    outer loop
      vertex -2.26225 -10.8241 -2.86765
      vertex -1.99476 -10.7927 -2.87062
      vertex -2.2552 -10.7947 -2.8632
    endloop
  endfacet
  facet normal 0.0285738 -0.0173537 0.999441
    outer loop
      vertex -2.31752 -11.0498 -2.89669
      vertex -1.99326 -11.2329 -2.90914
      vertex -1.99431 -11.0114 -2.90527
    endloop
  endfacet
  facet normal 0.0285737 -0.0173539 0.999441
    outer loop
      vertex -1.99326 -11.2329 -2.90914
      vertex -2.31752 -11.0498 -2.89669
      vertex -2.36825 -11.2357 -2.89847
    endloop
  endfacet
  facet normal 0.0285735 -0.0173514 0.999441
    outer loop
      vertex -2.31752 -11.0498 -2.89669
      vertex -1.99431 -11.0114 -2.90527
      vertex -2.30769 -11.0138 -2.89635
    endloop
  endfacet
  facet normal 0.0273037 0.121956 0.99216
    outer loop
      vertex -2.38141 -11.2787 -2.89282
      vertex -1.99163 -11.4527 -2.88217
      vertex -1.99326 -11.2329 -2.90914
    endloop
  endfacet
  facet normal 0.0273038 0.121956 0.99216
    outer loop
      vertex -1.99163 -11.4527 -2.88217
      vertex -2.38141 -11.2787 -2.89282
      vertex -2.4357 -11.4561 -2.86953
    endloop
  endfacet
  facet normal 0.027304 0.121954 0.99216
    outer loop
      vertex -2.38141 -11.2787 -2.89282
      vertex -1.99326 -11.2329 -2.90914
      vertex -2.36825 -11.2357 -2.89847
    endloop
  endfacet
  facet normal 0.0255034 0.258894 0.965569
    outer loop
      vertex -2.45265 -11.5059 -2.85573
      vertex -1.98945 -11.6666 -2.82486
      vertex -1.99163 -11.4527 -2.88217
    endloop
  endfacet
  facet normal 0.025503 0.258893 0.965569
    outer loop
      vertex -1.98945 -11.6666 -2.82486
      vertex -2.45265 -11.5059 -2.85573
      vertex -2.50872 -11.6706 -2.81009
    endloop
  endfacet
  facet normal 0.0255027 0.258899 0.965568
    outer loop
      vertex -2.45265 -11.5059 -2.85573
      vertex -1.99163 -11.4527 -2.88217
      vertex -2.4357 -11.4561 -2.86953
    endloop
  endfacet
  facet normal 0.0232057 0.390799 0.920184
    outer loop
      vertex -2.52974 -11.7263 -2.7859
      vertex -1.98678 -11.8705 -2.73835
      vertex -1.98945 -11.6666 -2.82486
    endloop
  endfacet
  facet normal 0.0232066 0.390801 0.920183
    outer loop
      vertex -2.56001 -11.8065 -2.75108
      vertex -1.98678 -11.8705 -2.73835
      vertex -2.52974 -11.7263 -2.7859
    endloop
  endfacet
  facet normal 0.0232062 0.390798 0.920184
    outer loop
      vertex -1.98678 -11.8705 -2.73835
      vertex -2.56001 -11.8065 -2.75108
      vertex -2.58664 -11.8751 -2.72128
    endloop
  endfacet
  facet normal 0.0232056 0.3908 0.920183
    outer loop
      vertex -2.52974 -11.7263 -2.7859
      vertex -1.98945 -11.6666 -2.82486
      vertex -2.50872 -11.6706 -2.81009
    endloop
  endfacet
  facet normal 0.0204575 0.515095 0.856889
    outer loop
      vertex -2.61278 -11.9353 -2.68445
      vertex -1.98365 -12.0603 -2.62431
      vertex -1.98678 -11.8705 -2.73835
    endloop
  endfacet
  facet normal 0.0204566 0.515091 0.856891
    outer loop
      vertex -1.98365 -12.0603 -2.62431
      vertex -2.61278 -11.9353 -2.68445
      vertex -2.66929 -12.0655 -2.6048
    endloop
  endfacet
  facet normal 0.0204572 0.515096 0.856888
    outer loop
      vertex -2.61278 -11.9353 -2.68445
      vertex -1.98678 -11.8705 -2.73835
      vertex -2.58664 -11.8751 -2.72128
    endloop
  endfacet
  facet normal 0.0173092 0.62937 0.776913
    outer loop
      vertex -2.69983 -12.1282 -2.55339
      vertex -1.98013 -12.2324 -2.48497
      vertex -1.98365 -12.0603 -2.62431
    endloop
  endfacet
  facet normal 0.01731 0.629374 0.77691
    outer loop
      vertex -1.98013 -12.2324 -2.48497
      vertex -2.69983 -12.1282 -2.55339
      vertex -2.75355 -12.2383 -2.46296
    endloop
  endfacet
  facet normal 0.017309 0.629371 0.776912
    outer loop
      vertex -2.69983 -12.1282 -2.55339
      vertex -1.98365 -12.0603 -2.62431
      vertex -2.66929 -12.0655 -2.6048
    endloop
  endfacet
  facet normal 0.0138259 0.73139 0.681819
    outer loop
      vertex -1.97629 -12.3835 -2.32302
      vertex -2.78807 -12.3005 -2.39557
      vertex -2.8378 -12.39 -2.29851
    endloop
  endfacet
  facet normal 0.0138262 0.731392 0.681817
    outer loop
      vertex -2.78807 -12.3005 -2.39557
      vertex -1.97629 -12.3835 -2.32302
      vertex -1.98013 -12.2324 -2.48497
    endloop
  endfacet
  facet normal 0.0138262 0.731392 0.681817
    outer loop
      vertex -2.78807 -12.3005 -2.39557
      vertex -1.98013 -12.2324 -2.48497
      vertex -2.75355 -12.2383 -2.46296
    endloop
  endfacet
  facet normal 0.0100724 0.819182 0.573445
    outer loop
      vertex -1.97221 -12.5105 -2.14164
      vertex -2.87555 -12.4484 -2.21447
      vertex -2.92039 -12.5177 -2.11466
    endloop
  endfacet
  facet normal 0.0100724 0.819182 0.573445
    outer loop
      vertex -2.87555 -12.4484 -2.21447
      vertex -1.97221 -12.5105 -2.14164
      vertex -1.97629 -12.3835 -2.32302
    endloop
  endfacet
  facet normal 0.0100725 0.819182 0.573445
    outer loop
      vertex -2.87555 -12.4484 -2.21447
      vertex -1.97629 -12.3835 -2.32302
      vertex -2.8378 -12.39 -2.29851
    endloop
  endfacet
  facet normal 0.00612315 0.891025 0.453913
    outer loop
      vertex -1.96795 -12.611 -1.94434
      vertex -2.96032 -12.5686 -2.01414
      vertex -2.99971 -12.6189 -1.91498
    endloop
  endfacet
  facet normal 0.00612308 0.891024 0.453914
    outer loop
      vertex -2.96032 -12.5686 -2.01414
      vertex -1.96795 -12.611 -1.94434
      vertex -1.97221 -12.5105 -2.14164
    endloop
  endfacet
  facet normal 0.00612311 0.891024 0.453914
    outer loop
      vertex -2.96032 -12.5686 -2.01414
      vertex -1.97221 -12.5105 -2.14164
      vertex -2.92039 -12.5177 -2.11466
    endloop
  endfacet
  facet normal 0.00205405 0.945525 0.325542
    outer loop
      vertex -1.96361 -12.6831 -1.73497
      vertex -3.04052 -12.6587 -1.79909
      vertex -3.07423 -12.6916 -1.70337
    endloop
  endfacet
  facet normal 0.00205399 0.945525 0.325543
    outer loop
      vertex -3.04052 -12.6587 -1.79909
      vertex -1.96361 -12.6831 -1.73497
      vertex -1.96795 -12.611 -1.94434
    endloop
  endfacet
  facet normal 0.00205472 0.945523 0.325547
    outer loop
      vertex -3.04052 -12.6587 -1.79909
      vertex -1.96795 -12.611 -1.94434
      vertex -2.99971 -12.6189 -1.91498
    endloop
  endfacet
endsolid OpenSCAD_Model
